<?xml version="1.0" encoding="UTF-8"?>
<svg width="25px" height="27px" viewBox="0 0 25 27" version="1.1" xmlns="http://www.w3.org/2000/svg" xmlns:xlink="http://www.w3.org/1999/xlink">
    <!-- Generator: Sketch 49.1 (51147) - http://www.bohemiancoding.com/sketch -->
    <title>arhive</title>
    <desc>Created with Sketch.</desc>
    <defs></defs>
    <g id="Рекрутинг" stroke="none" stroke-width="1" fill="none" fill-rule="evenodd">
        <g id="arhive" fill="#A5AFBA" fill-rule="nonzero">
            <path d="M5.28841481,0.466666667 L18.9775635,0.466666667 C19.9072478,0.466666667 20.7487522,1.0170289 21.1213798,1.86876925 L23.9174567,8.25995356 C24.0866576,8.64670774 24.1740045,9.0642882 24.1740045,9.4864348 L24.1740045,23.3571934 C24.1740045,24.9676557 22.8684669,26.2731934 21.2580045,26.2731934 L3.0699787,26.2731934 C1.45951637,26.2731934 0.153978705,24.9676557 0.153978705,23.3571934 L0.153978705,9.4777855 C0.153978705,9.06355379 0.23808167,8.65363457 0.401191164,8.27286797 L3.13745963,1.88525914 C3.50610514,1.02468448 4.35220529,0.466666667 5.28841481,0.466666667 Z M5.28841481,2.26666667 C5.07236646,2.26666667 4.87711258,2.39544001 4.79204054,2.59403416 L2.05577207,8.98164299 C1.98860934,9.13842923 1.9539787,9.3072195 1.9539787,9.4777855 L1.9539787,23.3571934 C1.9539787,23.9735431 2.45362892,24.4731934 3.0699787,24.4731934 L21.2580045,24.4731934 C21.8743543,24.4731934 22.3740045,23.9735431 22.3740045,23.3571934 L22.3740045,9.4864348 C22.3740045,9.31260973 22.3380381,9.14066483 22.2683672,8.98141311 L19.4722903,2.5902288 C19.3862993,2.39367333 19.192106,2.26666667 18.9775635,2.26666667 L5.28841481,2.26666667 Z" id="Line"></path>
            <path d="M5.28841481,0.466666667 L18.9775635,0.466666667 C19.9072478,0.466666667 20.7487522,1.0170289 21.1213798,1.86876925 L23.3043083,6.85843849 C23.7904187,7.9695742 23.2837355,9.26439796 22.1725998,9.75050831 C21.8950468,9.87193487 21.5953714,9.93461914 21.2924192,9.93461914 L3.0190518,9.93461914 C1.80623449,9.93461914 0.8230518,8.95143645 0.8230518,7.73861914 C0.8230518,7.44134697 0.883408046,7.14716965 1.00046309,6.87391362 L3.13745963,1.88525914 C3.50610514,1.02468448 4.35220529,0.466666667 5.28841481,0.466666667 Z M5.28841481,2.26666667 C5.07236646,2.26666667 4.87711258,2.39544001 4.79204054,2.59403416 L2.655044,7.58268864 C2.63393571,7.63196431 2.6230518,7.68501268 2.6230518,7.73861914 C2.6230518,7.9573239 2.80034704,8.13461914 3.0190518,8.13461914 L21.2924192,8.13461914 C21.3470499,8.13461914 21.4010897,8.12331542 21.4511403,8.10141883 C21.651509,8.01375958 21.7428781,7.78026677 21.6552189,7.57989804 L19.4722903,2.5902288 C19.3862993,2.39367333 19.192106,2.26666667 18.9775635,2.26666667 L5.28841481,2.26666667 Z" id="Line"></path>
            <path d="M15.2135071,15.9998382 C15.480944,16.2685221 15.4773658,16.702124 15.2055737,16.9664179 C14.935838,17.2287122 14.5035185,17.2252268 14.2381057,16.9585765 L13.1859677,15.901533 L13.1859677,20.05 C13.1859677,20.4273017 12.8780325,20.7316667 12.5,20.7316667 C12.4678578,20.7313104 12.4678578,20.7313104 12.4405871,20.7316667 C12.0625546,20.7316667 11.7546194,20.4273017 11.7546194,20.05 L11.7546194,15.901533 L10.7024814,16.9585765 C10.4370686,17.2252268 10.0047491,17.2287122 9.73501344,16.9664179 C9.46322136,16.702124 9.45964315,16.2685221 9.72708007,15.9998382 L11.8160076,13.9011712 C11.9255863,13.6615179 12.1677071,13.5016667 12.4405871,13.5016667 C12.4727293,13.5020229 12.4727293,13.5020229 12.5,13.5016667 C12.77288,13.5016667 13.0150008,13.6615179 13.1245796,13.9011712 L15.2135071,15.9998382 Z" id="Combined-Shape" transform="translate(12.470294, 17.116667) scale(1, -1) translate(-12.470294, -17.116667) "></path>
        </g>
    </g>
</svg>