<?xml version="1.0" encoding="UTF-8"?>
<svg width="16px" height="17px" viewBox="0 0 16 17" version="1.1" xmlns="http://www.w3.org/2000/svg" xmlns:xlink="http://www.w3.org/1999/xlink">
    <!-- Generator: Sketch 49.1 (51147) - http://www.bohemiancoding.com/sketch -->
    <title>Calendar</title>
    <desc>Created with Sketch.</desc>
    <defs>
        <path d="M726,162.000106 C726,161.447512 725.553693,161 725.004911,161 C725,161.552371 724.556135,162 724,162 C723.447715,162 723,161.556283 723,161.000193 L717,161 C717,161.552371 716.556135,162 716,162 C715.447715,162 715,161.556283 715,161.000193 C714.445728,161 714,161.446943 714,162.000106 L714,164 L726,164 L726,162.000106 Z M714,166 L714,170.999894 C714,171.552488 714.446307,172 714.995089,172 L725.004911,172 C725.554272,172 726,171.553057 726,170.999894 L726,166 L714,166 Z M728,162.000106 L728,170.999894 C728,172.656409 726.660062,174 725.004911,174 L714.995089,174 C713.340528,174 712,172.655852 712,170.999894 L712,162.000106 C712,160.343591 713.339938,159 714.995089,159 L715,157.999807 C715,157.447629 715.443865,157 716,157 C716.552285,157 717,157.443717 717,157.999807 L717,159 L723,159 L723,157.999807 C723,157.447629 723.443865,157 724,157 C724.552285,157 725,157.443717 725,157.999807 L725,159 C726.659472,159 728,160.344148 728,162.000106 Z" id="path-1"></path>
    </defs>
    <g id="Рекрутинг" stroke="none" stroke-width="1" fill="none" fill-rule="evenodd">
        <g id="Форма-нового-резюме-(Blank)" transform="translate(-712.000000, -157.000000)">
            <mask id="mask-2" fill="white">
                <use xlink:href="#path-1"></use>
            </mask>
            <use id="Calendar" fill="#A5AFBA" xlink:href="#path-1"></use>
        </g>
    </g>
</svg>