<?xml version="1.0" encoding="UTF-8"?>
<svg width="24px" height="24px" viewBox="0 0 24 24" version="1.1" xmlns="http://www.w3.org/2000/svg" xmlns:xlink="http://www.w3.org/1999/xlink">
    <!-- Generator: Sketch 49.1 (51147) - http://www.bohemiancoding.com/sketch -->
    <title>Close</title>
    <desc>Created with Sketch.</desc>
    <defs></defs>
    <g id="Рекрутинг" stroke="none" stroke-width="1" fill="none" fill-rule="evenodd">
        <g id="Кандидаты-Поиск" transform="translate(-1146.000000, -50.000000)" fill="#A5AFBA">
            <g id="Group-6" transform="translate(250.000000, 30.000000)">
                <path d="M908,29.695335 L917.218023,20.4773117 C917.854439,19.8408961 918.886273,19.8408961 919.522688,20.4773117 C920.159104,21.1137274 920.159104,22.1455611 919.522688,22.7819767 L910.304665,32 L919.522688,41.2180233 C920.159104,41.8544389 920.159104,42.8862726 919.522688,43.5226883 C918.886273,44.1591039 917.854439,44.1591039 917.218023,43.5226883 L908,34.304665 L898.781977,43.5226883 C898.145561,44.1591039 897.113727,44.1591039 896.477312,43.5226883 C895.840896,42.8862726 895.840896,41.8544389 896.477312,41.2180233 L905.695335,32 L896.477312,22.7819767 C895.840896,22.1455611 895.840896,21.1137274 896.477312,20.4773117 C897.113727,19.8408961 898.145561,19.8408961 898.781977,20.4773117 L908,29.695335 Z" id="Close"></path>
            </g>
        </g>
    </g>
</svg>