<?xml version="1.0" encoding="UTF-8"?>
<svg width="16px" height="16px" viewBox="0 0 16 16" version="1.1" xmlns="http://www.w3.org/2000/svg" xmlns:xlink="http://www.w3.org/1999/xlink">
    <!-- Generator: Sketch 49.1 (51147) - http://www.bohemiancoding.com/sketch -->
    <title>Cancel select</title>
    <desc>Created with Sketch.</desc>
    <defs>
        <path d="M721.408406,376 L723.708309,373.700097 C724.09723,373.311176 724.09723,372.680611 723.708309,372.291691 C723.319389,371.90277 722.688824,371.90277 722.299903,372.291691 L720,374.591594 L717.700097,372.291691 C717.311176,371.90277 716.680611,371.90277 716.291691,372.291691 C715.90277,372.680611 715.90277,373.311176 716.291691,373.700097 L718.591594,376 L716.291691,378.299903 C715.90277,378.688824 715.90277,379.319389 716.291691,379.708309 C716.680611,380.09723 717.311176,380.09723 717.700097,379.708309 L720,377.408406 L722.299903,379.708309 C722.688824,380.09723 723.319389,380.09723 723.708309,379.708309 C724.09723,379.319389 724.09723,378.688824 723.708309,378.299903 L721.408406,376 Z M720,384 C715.581722,384 712,380.418278 712,376 C712,371.581722 715.581722,368 720,368 C724.418278,368 728,371.581722 728,376 C728,380.418278 724.418278,384 720,384 Z" id="path-1"></path>
    </defs>
    <g id="Рекрутинг" stroke="none" stroke-width="1" fill="none" fill-rule="evenodd">
        <g id="Кандидаты-Поиск" transform="translate(-712.000000, -368.000000)">
            <mask id="mask-2" fill="white">
                <use xlink:href="#path-1"></use>
            </mask>
            <use id="Cancel-select" fill="#A5AFBA" xlink:href="#path-1"></use>
        </g>
    </g>
</svg>