<?xml version="1.0" encoding="UTF-8"?>
<svg width="25px" height="30px" viewBox="0 0 25 30" version="1.1" xmlns="http://www.w3.org/2000/svg" xmlns:xlink="http://www.w3.org/1999/xlink">
    <title>delete</title>
    <g id="Group-21" stroke-width="1" fill="#000000">
        <path d="M1.80997912,7.86214058 C1.78904854,7.33236053 2.20155255,6.88592135 2.73133261,6.86499077 C3.26111267,6.8440602 3.70755184,7.25656421 3.72848242,7.78634426 L4.46913347,26.5331842 C4.49626483,27.219914 5.06087011,27.7626533 5.74813568,27.7626533 L19.2238473,27.7626533 C19.9094073,27.7626533 20.4732472,27.222513 20.502668,26.5375844 L21.3082607,7.78304406 C21.3310139,7.25333915 21.7788697,6.84237361 22.3085746,6.86512684 C22.8382795,6.88788007 23.249245,7.33573588 23.2264918,7.86544079 L22.4208992,26.6199812 C22.3473472,28.3323024 20.9377475,29.6826533 19.2238473,29.6826533 L5.74813568,29.6826533 C4.02997177,29.6826533 2.61845856,28.325805 2.55063017,26.6089805 L1.80997912,7.86214058 Z" id="Line-2"></path>
        <path d="M1.22115385,5.01212121 C0.668869096,5.01212121 0.221153846,4.56440596 0.221153846,4.01212121 C0.221153846,3.45983646 0.668869096,3.01212121 1.22115385,3.01212121 L23.4280504,3.01212121 C23.9803351,3.01212121 24.4280504,3.45983646 24.4280504,4.01212121 C24.4280504,4.56440596 23.9803351,5.01212121 23.4280504,5.01212121 L1.22115385,5.01212121 Z" id="Line-4"></path>
        <path d="M11.5455072,11.1759174 C11.5455072,10.645724 11.9753139,10.2159174 12.5055072,10.2159174 C13.0357006,10.2159174 13.4655072,10.645724 13.4655072,11.1759174 L13.4655072,24.0244022 C13.4655072,24.5545956 13.0357006,24.9844022 12.5055072,24.9844022 C11.9753139,24.9844022 11.5455072,24.5545956 11.5455072,24.0244022 L11.5455072,11.1759174 Z" id="Line-3"></path>
        <path d="M16.4814949,11.1503376 C16.5031498,10.6205866 16.9501526,10.2086934 17.4799035,10.2303483 C18.0096545,10.2520033 18.4215477,10.699006 18.3998928,11.228757 L17.875058,24.0679528 C17.8534031,24.5977038 17.4064003,25.009597 16.8766494,24.9879421 C16.3468985,24.9662872 15.9350052,24.5192844 15.9566602,23.9895335 L16.4814949,11.1503376 Z" id="Line-3"></path>
        <path d="M6.66821231,11.2303483 C6.6465574,10.7005974 7.05845061,10.2535946 7.58820156,10.2319397 C8.1179525,10.2102848 8.56495527,10.622178 8.58661019,11.1519289 L9.11144493,23.9911248 C9.13309984,24.5208757 8.72120663,24.9678785 8.19145568,24.9895334 C7.66170474,25.0111883 7.21470197,24.5992951 7.19304705,24.0695442 L6.66821231,11.2303483 Z" id="Line-3"></path>
        <path d="M8.79289681,4.68279124 L6.89340883,4.0567358 L7.59157918,1.93844711 C7.96884868,0.793789887 9.03803726,0.0204205137 10.2432644,0.0204205137 L13.9715744,0.0204205137 C15.1769195,0.0204205137 16.2461849,0.793938867 16.6233599,1.93875148 L17.3212082,4.05688074 L15.4216484,4.68271815 L14.7238001,2.5645889 C14.6168077,2.23984263 14.3134918,2.02042051 13.9715744,2.02042051 L10.2432644,2.02042051 C9.90138048,2.02042051 9.5980863,2.23980036 9.49106715,2.56450256 L8.79289681,4.68279124 Z" id="Line-5"></path>
    </g>
</svg>