<?xml version="1.0" encoding="UTF-8"?>
<svg width="26px" height="27px" viewBox="0 0 26 27" version="1.1" xmlns="http://www.w3.org/2000/svg" xmlns:xlink="http://www.w3.org/1999/xlink">
    <!-- Generator: Sketch 49.1 (51147) - http://www.bohemiancoding.com/sketch -->
    <title>edit</title>
    <desc>Created with Sketch.</desc>
    <defs></defs>
    <g id="Рекрутинг" stroke="none" stroke-width="1" fill="none" fill-rule="evenodd">
        <g id="Карточка-кандидата" transform="translate(-997.000000, -120.000000)" fill="#000000" fill-rule="nonzero">
            <g id="Group-2" transform="translate(250.000000, 90.000000)">
                <g id="edit" transform="translate(747.000000, 30.000000)">
                    <g id="Group" transform="translate(0.000000, 2.151515)">
                        <path d="M21.7741935,9.27881044 C21.7741935,8.72652569 22.2219088,8.27881044 22.7741935,8.27881044 C23.3264783,8.27881044 23.7741935,8.72652569 23.7741935,9.27881044 L23.7741935,21.0909091 C23.7741935,23.1714429 22.0576183,24.8484848 19.9516129,24.8484848 L3.82258065,24.8484848 C1.71657524,24.8484848 0,23.1714429 0,21.0909091 L0,3.75757576 C0,1.67704199 1.71657524,5.32907052e-15 3.82258065,5.32907052e-15 L14.4886711,5.32907052e-15 C15.0409558,5.32907052e-15 15.4886711,0.44771525 15.4886711,1 C15.4886711,1.55228475 15.0409558,2 14.4886711,2 L3.82258065,2 C2.81084956,2 2,2.79217545 2,3.75757576 L2,21.0909091 C2,22.0563094 2.81084956,22.8484848 3.82258065,22.8484848 L19.9516129,22.8484848 C20.963344,22.8484848 21.7741935,22.0563094 21.7741935,21.0909091 L21.7741935,9.27881044 Z" id="Rectangle-5"></path>
                    </g>
                    <path d="M25.0281224,0.949494949 C23.9165256,-0.12368927 22.1281395,-0.12368927 21.0165426,0.949494949 L11.6492969,10.0808081 C11.2204703,10.5045941 10.9199052,11.035948 10.7808106,11.6161616 L10.0363937,14.6262626 C9.97965362,14.8663156 10.0381057,15.1185439 10.1951485,15.3113099 C10.3521912,15.504076 10.5906674,15.6163196 10.8428453,15.6161616 L11.0289495,15.6161616 L14.1100083,14.8888889 C14.7038994,14.7529977 15.247779,14.4593547 15.681555,14.040404 L25.0281224,4.86868687 C25.5609983,4.34944063 25.8604819,3.64437641 25.8604819,2.90909091 C25.8604819,2.1738054 25.5609983,1.46874119 25.0281224,0.949494949 Z M23.8494624,2.1010101 C24.2318998,2.47867369 24.3002455,3.06292621 24.0148883,3.51515152 L22.3813069,1.91919192 C22.8441926,1.6404066 23.4422178,1.70717832 23.8287841,2.08080808 L23.8494624,2.1010101 Z M14.502895,12.8686869 C14.286007,13.0781622 14.0140671,13.2249837 13.7171216,13.2929293 L11.9594706,13.7171717 L12.3937138,12 C12.4632611,11.7098932 12.6135437,11.4442162 12.827957,11.2323232 L21.2026468,3.03030303 L22.898263,4.68686869 L14.502895,12.8686869 Z" id="Shape"></path>
                </g>
            </g>
        </g>
    </g>
</svg>