<?xml version="1.0" encoding="UTF-8"?>
<svg width="14px" height="16px" viewBox="0 0 14 16" version="1.1" xmlns="http://www.w3.org/2000/svg" xmlns:xlink="http://www.w3.org/1999/xlink">
    <!-- Generator: Sketch 49.1 (51147) - http://www.bohemiancoding.com/sketch -->
    <title>Icon</title>
    <desc>Created with Sketch.</desc>
    <defs>
        <path d="M15,11 L15.5,11 C16.3284271,11 17,11.6715729 17,12.5 C17,13.3284271 16.3284271,14 15.5,14 L15,14 L15,17 C15,17.5522847 14.5522847,18 14,18 C13.4477153,18 13,17.5522847 13,17 L13,14 L12.5,14 C11.6715729,14 11,13.3284271 11,12.5 C11,11.6715729 11.6715729,11 12.5,11 L13,11 L13,3 C13,2.44771525 13.4477153,2 14,2 C14.5522847,2 15,2.44771525 15,3 L15,11 Z M7,6 L7.5,6 C8.32842712,6 9,6.67157288 9,7.5 C9,8.32842712 8.32842712,9 7.5,9 L7,9 L7,17 C7,17.5522847 6.55228475,18 6,18 C5.44771525,18 5,17.5522847 5,17 L5,9 L4.5,9 C3.67157288,9 3,8.32842712 3,7.5 C3,6.67157288 3.67157288,6 4.5,6 L5,6 L5,3 C5,2.44771525 5.44771525,2 6,2 C6.55228475,2 7,2.44771525 7,3 L7,6 Z" id="path-1"></path>
    </defs>
    <g id="Symbols" stroke="none" stroke-width="1" fill="none" fill-rule="evenodd">
        <g id="Button-/-Solid-with-Icon-/-Default" transform="translate(-15.000000, -11.000000)">
            <g id="Group">
                <g transform="translate(12.000000, 9.000000)">
                    <g id="Icon-/-Filter">
                        <mask id="mask-2" fill="white">
                            <use xlink:href="#path-1"></use>
                        </mask>
                        <use id="Combined-Shape" fill="black" fill-rule="evenodd" xlink:href="#path-1"></use>
                    </g>
                </g>
            </g>
        </g>
    </g>
</svg>