<?xml version="1.0" encoding="UTF-8"?>
<svg width="22px" height="19px" viewBox="0 0 22 19" version="1.1" xmlns="http://www.w3.org/2000/svg" xmlns:xlink="http://www.w3.org/1999/xlink">
    <!-- Generator: Sketch 49.1 (51147) - http://www.bohemiancoding.com/sketch -->
    <title>Messenger</title>
    <desc>Created with Sketch.</desc>
    <defs></defs>
    <g id="Рекрутинг" stroke="none" stroke-width="1" fill="none" fill-rule="evenodd">
        <g id="Кандидат-&gt;-Новый-контакт" transform="translate(-530.000000, -258.000000)" fill="#A5AFBA" fill-rule="nonzero">
            <g id="Group-16" transform="translate(346.000000, 140.000000)">
                <g id="Group-15" transform="translate(40.000000, 108.000000)">
                    <g id="Group-13-Copy-2" transform="translate(135.000000, 0.000000)">
                        <g id="Messenger" transform="translate(9.000000, 10.000000)">
                            <path d="M19.767,17.7480009 C19.767,18.0305565 19.5985427,18.2829134 19.3374615,18.3913086 C19.2535094,18.4262886 19.1634721,18.4440009 19.071,18.4440009 C18.88464,18.4440009 18.7101578,18.3715801 18.5782893,18.2397116 L15.413,15.0330009 L9.841,15.0330009 C8.77060833,15.0330009 7.9,14.1620661 7.9,13.0910009 L7.9,6.84100091 C7.9,5.769756 8.77080952,4.89894648 9.841,4.90000091 L20.037,4.90000091 C21.1082285,4.90000091 21.979,5.77077243 21.979,6.84200091 L21.979,13.0920009 C21.979,14.1632294 21.1082285,15.0340009 20.037,15.0340009 L19.767,15.0340009 L19.767,17.7480009 Z M18.375,14.3360009 C18.375,13.952453 18.6870905,13.6400009 19.071,13.6400009 L20.038,13.6400009 C20.3409023,13.6400009 20.587,13.3936414 20.587,13.0900009 L20.587,6.84000091 C20.587,6.53722938 20.3407715,6.29100091 20.038,6.29100091 L9.841,6.29100091 C9.53822847,6.29100091 9.292,6.53722938 9.292,6.84000091 L9.292,13.0900009 C9.292,13.3927724 9.53822847,13.6390009 9.841,13.6390009 L15.66,13.6390009 C15.8434224,13.6390009 16.0228865,13.7134661 16.1527107,13.8432902 L18.375,16.0655796 L18.375,14.3360009 Z" id="Shape"></path>
                            <path d="M2.629,9.514 C1.68957864,9.514 0.925,8.74942136 0.925,7.81 L0.925,2.629 C0.925,1.68957864 1.68957864,0.925 2.629,0.925 L11.08,0.925 C12.0192453,0.925 12.783,1.68940246 12.783,2.629 L12.783,3.544 C12.783,3.91374723 12.4820959,4.215 12.112,4.215 C11.7422528,4.215 11.441,3.9140959 11.441,3.544 L11.441,2.629 C11.441,2.43042136 11.2785786,2.268 11.08,2.268 L2.629,2.268 C2.4295499,2.268 2.267,2.43029311 2.267,2.629 L2.267,7.811 C2.267,8.00970689 2.4295499,8.172 2.629,8.172 L3.431,8.172 C3.80074723,8.172 4.102,8.4729041 4.102,8.843 L4.102,10.0490048 L5.78196699,8.36996699 C5.90710662,8.24482736 6.08021357,8.173 6.257,8.173 L6.966,8.173 C7.33574723,8.173 7.637,8.4739041 7.637,8.844 C7.637,9.21374723 7.3360959,9.515 6.966,9.515 L6.55803301,9.49303301 L3.90603301,12.145033 C3.77909813,12.2719679 3.61007548,12.342 3.431,12.342 C3.34307575,12.342 3.25637968,12.3244341 3.1732417,12.2902673 C2.92137541,12.1856978 2.759,11.9424518 2.759,11.67 L2.759,9.514 L2.629,9.514 Z" id="Shape"></path>
                        </g>
                    </g>
                </g>
            </g>
        </g>
    </g>
</svg>