<?xml version="1.0" encoding="UTF-8"?>
<svg width="16px" height="19px" viewBox="0 0 16 19" version="1.1" xmlns="http://www.w3.org/2000/svg" xmlns:xlink="http://www.w3.org/1999/xlink">
    <!-- Generator: Sketch 49.1 (51147) - http://www.bohemiancoding.com/sketch -->
    <title>Shape</title>
    <desc>Created with Sketch.</desc>
    <defs></defs>
    <g id="Рекрутинг" stroke="none" stroke-width="1" fill="none" fill-rule="evenodd">
        <g id="Карточка-кандидата--Комменты" transform="translate(-909.000000, -460.000000)" fill="#A5AFBA" fill-rule="nonzero">
            <g id="Group-2" transform="translate(243.000000, 90.000000)">
                <g id="Group-10" transform="translate(666.000000, 124.000000)">
                    <g id="pdf" transform="translate(0.000000, 246.000000)">
                        <path d="M12.7392821,12.3662577 C12.4992821,12.4338351 12.1470769,12.4414742 11.7692308,12.3891753 C11.3638974,12.3329588 10.950359,12.2146495 10.544,12.0403196 C11.2687179,11.9396392 11.8309744,11.9705876 12.3117949,12.1333608 C12.4258462,12.1719485 12.6129231,12.2749794 12.7392821,12.3662577 Z M8.69579487,11.7314227 C8.66625641,11.7390619 8.63733333,11.7463093 8.60841026,11.7539485 C8.41333333,11.8046804 8.22358974,11.8540412 8.04082051,11.8981134 L7.79425641,11.9578557 C7.29825641,12.077732 6.79117949,12.2001546 6.29046154,12.3458866 C6.48082051,11.9075155 6.65764103,11.4644433 6.83076923,11.0311649 C6.95897436,10.7105155 7.08984615,10.3828144 7.22523077,10.0594227 C7.29394872,10.1677423 7.36553846,10.2760619 7.44020513,10.3847732 C7.77989744,10.8789691 8.20697436,11.3359485 8.69579487,11.7314227 Z M7.43425641,6.78887629 C7.46646154,7.32969072 7.34420513,7.84993814 7.16492308,8.34903093 C6.94420513,7.73182474 6.84123077,7.05037113 7.11733333,6.50015464 C7.18810256,6.35912371 7.24615385,6.28371134 7.28369231,6.24434021 C7.34174359,6.33013402 7.41825641,6.52170103 7.43425641,6.78887629 Z M4.84512821,13.6398454 C4.72102564,13.8517835 4.59446154,14.0502062 4.46461538,14.2374639 C4.15138462,14.6881753 3.63917949,15.1708144 3.376,15.1708144 C3.35015385,15.1708144 3.31876923,15.1668969 3.27302564,15.1206701 C3.24348718,15.0910928 3.23876923,15.0699381 3.24020513,15.0411443 C3.24902564,14.875433 3.47897436,14.5802474 3.81210256,14.3066082 C4.11446154,14.0582371 4.45620513,13.8376804 4.84512821,13.6398454 Z M13.5774359,12.389567 C13.5372308,11.8375876 12.5641026,11.4834433 12.5544615,11.4801134 C12.1782564,11.3527938 11.769641,11.2908969 11.3052308,11.2908969 C10.808,11.2908969 10.272,11.3596495 9.58358974,11.5132165 C8.97107692,11.0985464 8.44184615,10.5794742 8.0465641,10.0047732 C7.872,9.75091753 7.71507692,9.49745361 7.57825641,9.24986598 C7.91220513,8.48731959 8.21292308,7.66738144 8.15835897,6.7491134 C8.11425641,6.01281443 7.7665641,5.5182268 7.29374359,5.5182268 C6.9694359,5.5182268 6.69005128,5.74759794 6.46297436,6.20065979 C6.05784615,7.00806186 6.16430769,8.0411134 6.77928205,9.27376289 C6.55774359,9.77050515 6.352,10.2854639 6.15282051,10.7841649 C5.90502564,11.4041134 5.64964103,12.0436495 5.36184615,12.6520412 C4.55466667,12.9570206 3.89169231,13.3268351 3.33907692,13.7808763 C2.97702564,14.0778247 2.54071795,14.5316701 2.51569231,15.0054948 C2.50358974,15.2285979 2.58358974,15.4332887 2.74646154,15.5972371 C2.91938462,15.7713711 3.13682051,15.8630412 3.37579487,15.8632371 C4.16512821,15.8632371 4.92471795,14.8276392 5.06871795,14.6200103 C5.35876923,14.2025979 5.63015385,13.737 5.89620513,13.1999072 C6.56615385,12.9687732 7.28020513,12.7962062 7.97210256,12.6293196 L8.21989744,12.5691856 C8.40615385,12.5239381 8.59979487,12.4739897 8.79835897,12.4220825 C9.00861538,12.3678247 9.22482051,12.3116082 9.44451282,12.258134 C10.1550769,12.6896495 10.9191795,12.9711237 11.6644103,13.0743505 C12.2921026,13.1615155 12.849641,13.1109794 13.2268718,12.923134 C13.5665641,12.7542887 13.5854359,12.4937732 13.5774359,12.389567 Z M15.1060513,17.1360412 C15.1060513,18.1469588 14.1729231,18.2092474 13.9846154,18.2114021 L1.94625641,18.2114021 C0.891487179,18.2114021 0.827897436,17.3142887 0.825846154,17.1360412 L0.825846154,1.86415464 C0.825846154,0.852257732 1.76061538,0.790948454 1.94625641,0.788793814 L10.0785641,0.788793814 L10.0828718,0.792907216 L10.0828718,3.82330928 C10.0828718,4.43150515 10.4678974,5.58286598 11.9261538,5.58286598 L15.0789744,5.58286598 L15.1060513,5.60872165 L15.1060513,17.1360412 Z M14.3585641,4.89201031 L11.926359,4.89201031 C10.8717949,4.89201031 10.808,3.99979381 10.8065641,3.82330928 L10.8065641,1.48630928 L14.3585641,4.89201031 Z M15.8293333,17.1360412 L15.8293333,5.32352577 L10.8065641,0.507319588 L10.8065641,0.484989691 L10.7825641,0.484989691 L10.3792821,0.0979381443 L1.94625641,0.0979381443 C1.30851282,0.0979381443 0.102564103,0.467164948 0.102564103,1.86415464 L0.102564103,17.1362371 C0.102564103,17.7469794 0.488,18.9022577 1.94625641,18.9022577 L13.9858462,18.9022577 C14.6233846,18.9020619 15.8293333,18.5330309 15.8293333,17.1360412 Z" id="Shape"></path>
                    </g>
                </g>
            </g>
        </g>
    </g>
</svg>