<?xml version="1.0" encoding="UTF-8"?>
<svg width="22px" height="18px" viewBox="0 0 22 18" version="1.1" xmlns="http://www.w3.org/2000/svg" xmlns:xlink="http://www.w3.org/1999/xlink">
    <!-- Generator: Sketch 49.1 (51147) - http://www.bohemiancoding.com/sketch -->
    <title>Meeting</title>
    <desc>Created with Sketch.</desc>
    <defs></defs>
    <g id="Рекрутинг" stroke="none" stroke-width="1" fill="none" fill-rule="evenodd">
        <g id="Кандидат-&gt;-Новый-контакт" transform="translate(-484.000000, -259.000000)" fill="#000" fill-rule="nonzero">
            <g id="Group-16" transform="translate(346.000000, 140.000000)">
                <g id="Group-15" transform="translate(40.000000, 108.000000)">
                    <g id="Group-13-Copy" transform="translate(90.000000, 0.000000)">
                        <g id="Meeting" transform="translate(8.204590, 10.631836)">
                            <path d="M9.49317194,12.02245 C9.18192848,12.02245 8.89847265,11.8320687 8.78829496,11.5372936 C8.3564324,10.3757703 7.58635874,9.49118377 6.6872301,9.1064853 C6.30581337,8.94328045 6.1303415,8.50440247 6.29989109,8.12750334 C6.46756792,7.75476723 6.90743734,7.58736826 7.28538379,7.7486633 C8.56985546,8.29805578 9.62832585,9.49445325 10.1986907,11.0277699 C10.3422778,11.4146128 10.1381311,11.8408419 9.74696818,11.979121 C9.66436739,12.0081597 9.57918461,12.02245 9.49317194,12.02245 Z" id="Shape"></path>
                            <path d="M7.94909091,14.42455 L2.52839328,14.42455 C1.99728893,14.42455 1.49494191,14.1973371 1.15037279,13.800184 C0.802961628,13.3993165 0.65436382,12.8704788 0.743873066,12.3508382 C1.1083872,10.2288087 2.34936206,8.46609594 4.00006827,7.75370815 C4.37720428,7.59157938 4.81750003,7.7580651 4.98625434,8.12997418 C5.15696659,8.5061983 4.98250282,8.94592289 4.60166177,9.11007639 C3.42583074,9.61741095 2.50698235,10.9525481 2.22442748,12.5984906 C2.20957219,12.6851459 2.23383977,12.7718557 2.29210658,12.8391396 C2.35195561,12.9082505 2.43340871,12.9451167 2.52839328,12.9451167 L7.94909091,12.9451167 C8.36186609,12.9451167 8.69986166,13.2747582 8.69986166,13.6851167 C8.69986166,14.0955008 8.36185088,14.42455 7.94909091,14.42455 Z" id="Shape"></path>
                            <path d="M5.64822134,7.90561667 C6.63771741,7.90561667 7.43173518,7.13112355 7.43173518,6.19803333 C7.43173518,5.26531925 6.63751897,4.49073333 5.64822134,4.49073333 C4.65880505,4.49073333 3.86470751,5.26515315 3.86470751,6.19803333 C3.86470751,7.13112355 4.65872527,7.90561667 5.64822134,7.90561667 Z M5.64822134,9.20561667 C3.94784387,9.20561667 2.56470751,7.85638333 2.56470751,6.19803333 C2.56470751,4.53968333 3.94813439,3.19073333 5.64822134,3.19073333 C7.3483083,3.19073333 8.73173518,4.53996667 8.73173518,6.19803333 C8.73173518,7.85638333 7.34859881,9.20561667 5.64822134,9.20561667 Z" id="Shape"></path>
                            <path d="M19.3558261,18.2957333 L9.37173715,18.2957333 C8.65397828,18.2957333 7.97530916,17.988735 7.50954754,17.4524861 C7.0403009,16.9116584 6.83967658,16.1979158 6.96000248,15.496093 C7.52037176,12.2356841 9.41458374,9.54065426 11.9213794,8.46638115 C12.2990109,8.30473667 12.7390737,8.47220924 12.9069528,8.84490334 C13.0764951,9.22178635 12.9013334,9.66067516 12.5200335,9.82382999 C10.4896803,10.693672 8.91888984,12.9605441 8.44051743,15.7436918 C8.39441922,16.0115539 8.4707009,16.2832011 8.65070243,16.4908257 C8.82992378,16.6974362 9.09213655,16.8160167 9.37173715,16.8160167 L19.3558261,16.8160167 C19.6347292,16.8160167 19.897328,16.6972352 20.0763461,16.4910327 C20.2565449,16.28343 20.3329294,16.0117696 20.2870331,15.743618 C19.8106802,12.9717389 18.2471547,10.7080297 16.226462,9.83229122 C15.8461292,9.66716021 15.6726782,9.2274568 15.8440485,8.8514043 C16.0138056,8.47999677 16.4535639,8.31440547 16.8310199,8.47742632 C19.3244765,9.55807405 21.2089852,12.2487485 21.7672922,15.496504 C21.8876363,16.1984334 21.6868217,16.9122159 21.2170595,17.452867 C20.7518655,17.9885797 20.0731203,18.2957333 19.3558261,18.2957333 Z" id="Shape"></path>
                            <path d="M14.3636364,10.4488167 C11.6148394,10.4488167 9.37601186,8.26532518 9.37601186,5.57668333 C9.37601186,2.88799378 11.6148889,0.704266667 14.3636364,0.704266667 C17.1123839,0.704266667 19.3512609,2.88799378 19.3512609,5.57668333 C19.3512609,8.26532518 17.1124333,10.4488167 14.3636364,10.4488167 Z M14.3636364,2.18426667 C12.4398713,2.18426667 10.8775534,3.70813027 10.8775534,5.57668333 C10.8775534,7.44517482 12.4398088,8.96881667 14.3636364,8.96881667 C16.287464,8.96881667 17.8497194,7.44517482 17.8497194,5.57668333 C17.8497194,3.70813027 16.2874014,2.18426667 14.3636364,2.18426667 Z" id="Shape"></path>
                        </g>
                    </g>
                </g>
            </g>
        </g>
    </g>
</svg>