<?xml version="1.0" encoding="UTF-8"?>
<svg width="16px" height="16px" viewBox="0 0 16 16" version="1.1" xmlns="http://www.w3.org/2000/svg" xmlns:xlink="http://www.w3.org/1999/xlink">
    <!-- Generator: Sketch 49.1 (51147) - http://www.bohemiancoding.com/sketch -->
    <title>Combined Shape</title>
    <desc>Created with Sketch.</desc>
    <defs>
        <path d="M8.99589369,7.00410631 L8.99589369,3.75155212 C8.99589369,3.20153522 8.5500169,2.75565843 8,2.75565843 C7.4499831,2.75565843 7.00410631,3.20153522 7.00410631,3.75155212 L7.00410631,7.00410631 L3.75155212,7.00410631 C3.20153522,7.00410631 2.75565843,7.4499831 2.75565843,8 C2.75565843,8.5500169 3.20153522,8.99589369 3.75155212,8.99589369 L7.00410631,8.99589369 L7.00410631,12.2484479 C7.00410631,12.7984648 7.4499831,13.2443416 8,13.2443416 C8.5500169,13.2443416 8.99589369,12.7984648 8.99589369,12.2484479 L8.99589369,8.99589369 L12.2484479,8.99589369 C12.7984648,8.99589369 13.2443416,8.5500169 13.2443416,8 C13.2443416,7.4499831 12.7984648,7.00410631 12.2484479,7.00410631 L8.99589369,7.00410631 Z M8,16 C3.581722,16 0,12.418278 0,8 C0,3.581722 3.581722,0 8,0 C12.418278,0 16,3.581722 16,8 C16,12.418278 12.418278,16 8,16 Z" id="path-1"></path>
    </defs>
    <g id="Symbols" stroke="none" stroke-width="1" fill="none" fill-rule="evenodd">
        <mask id="mask-2" fill="white">
            <use xlink:href="#path-1"></use>
        </mask>
        <use id="Combined-Shape" fill="#FFFFFF" xlink:href="#path-1"></use>
    </g>
</svg>