<?xml version="1.0" encoding="UTF-8"?>
<svg width="13px" height="13px" viewBox="0 0 13 13" version="1.1" xmlns="http://www.w3.org/2000/svg" xmlns:xlink="http://www.w3.org/1999/xlink">
    <!-- Generator: Sketch 49.1 (51147) - http://www.bohemiancoding.com/sketch -->
    <title>Star Border</title>
    <desc>Created with Sketch.</desc>
    <defs></defs>
    <g id="Рекрутинг" stroke="none" stroke-width="1" fill="none" fill-rule="evenodd">
        <g id="Собеседование" transform="translate(-810.000000, -454.000000)" fill="#EDEFF1" fill-rule="nonzero">
            <g id="Group" transform="translate(250.000000, 90.000000)">
                <g id="Group-2" transform="translate(40.000000, 40.000000)">
                    <path d="M526.427603,333.118359 L529.213969,334.583238 L528.681821,331.480574 L530.936038,329.283255 L527.820786,328.830583 L526.427603,326.007686 L525.034421,328.830583 L521.919169,329.283255 L524.173386,331.480574 L523.641238,334.583238 L526.427603,333.118359 Z M526.427603,334.248134 L522.671801,336.222676 C522.574032,336.274077 522.453107,336.236487 522.401707,336.138718 C522.381239,336.099786 522.374176,336.055193 522.381611,336.011841 L523.098906,331.829694 L520.060398,328.867881 C519.981301,328.79078 519.979683,328.664158 520.056783,328.585061 C520.087485,328.553564 520.127713,328.533067 520.17124,328.526742 L524.370355,327.916575 L526.248256,324.111531 C526.297141,324.012481 526.417066,323.971813 526.516117,324.020697 C526.555559,324.040163 526.587485,324.072089 526.606951,324.111531 L528.484852,327.916575 L532.683967,328.526742 C532.793276,328.542625 532.869012,328.644114 532.853128,328.753423 C532.846803,328.79695 532.826306,328.837179 532.794809,328.867881 L529.756301,331.829694 L530.473596,336.011841 C530.492268,336.120708 530.41915,336.2241 530.310283,336.242772 C530.266932,336.250207 530.222338,336.243144 530.183406,336.222676 L526.427603,334.248134 Z" id="Star-Border"></path>
                </g>
            </g>
        </g>
    </g>
</svg>