<?xml version="1.0" encoding="UTF-8"?>
<svg width="13px" height="13px" viewBox="0 0 13 13" version="1.1" xmlns="http://www.w3.org/2000/svg" xmlns:xlink="http://www.w3.org/1999/xlink">
    <!-- Generator: Sketch 49.1 (51147) - http://www.bohemiancoding.com/sketch -->
    <title>Star Fill</title>
    <desc>Created with Sketch.</desc>
    <defs></defs>
    <g id="Рекрутинг" stroke="none" stroke-width="1" fill="none" fill-rule="evenodd">
        <g id="Собеседование" transform="translate(-824.000000, -454.000000)" fill="#F5C023" fill-rule="nonzero">
            <g id="Group" transform="translate(250.000000, 90.000000)">
                <g id="Group-2" transform="translate(40.000000, 40.000000)">
                    <path d="M540.427603,334.248134 L536.671801,336.222676 C536.574032,336.274077 536.453107,336.236487 536.401707,336.138718 C536.381239,336.099786 536.374176,336.055193 536.381611,336.011841 L537.098906,331.829694 L534.060398,328.867881 C533.981301,328.79078 533.979683,328.664158 534.056783,328.585061 C534.087485,328.553564 534.127713,328.533067 534.17124,328.526742 L538.370355,327.916575 L540.248256,324.111531 C540.297141,324.012481 540.417066,323.971813 540.516117,324.020697 C540.555559,324.040163 540.587485,324.072089 540.606951,324.111531 L542.484852,327.916575 L546.683967,328.526742 C546.793276,328.542625 546.869012,328.644114 546.853128,328.753423 C546.846803,328.79695 546.826306,328.837179 546.794809,328.867881 L543.756301,331.829694 L544.473596,336.011841 C544.492268,336.120708 544.41915,336.2241 544.310283,336.242772 C544.266932,336.250207 544.222338,336.243144 544.183406,336.222676 L540.427603,334.248134 Z" id="Star-Fill"></path>
                </g>
            </g>
        </g>
    </g>
</svg>