<svg id="Layer_1" data-name="Layer 1" xmlns="http://www.w3.org/2000/svg" viewBox="0 0 24 24"><defs><style>.cls-1{fill:#231f20;}</style></defs><title>Icons</title><path class="cls-1" d="M21.93,5.15a.43.43,0,0,1,0-.07.86.86,0,0,0-.13-.14s0,0,0,0l0,0s0,0-.07,0L12.24,1.05a.64.64,0,0,0-.47,0L7.13,2.79h0L2.41,4.58A.63.63,0,0,0,2,5.32a.45.45,0,0,0,0,.11V18.82a.64.64,0,0,0,.41.6L11.77,23h0A.52.52,0,0,0,12,23h0a.65.65,0,0,0,.19,0h0l9.36-3.54a.64.64,0,0,0,.41-.6V5.43h0A.68.68,0,0,0,21.93,5.15ZM12,2.33,19.6,5.41,17,6.41l-7.77-3Zm0,5.95-7.88-3L7.39,4.07l7.77,3Zm-.64,13.15L3.28,18.38v-12l8.08,3.06Zm9.36-3.05-8.08,3.05v-12L16.4,8v3.17a.64.64,0,0,0,1.28,0V7.5l3-1.15Z"/></svg>