<svg id="Layer_1" data-name="Layer 1" xmlns="http://www.w3.org/2000/svg" viewBox="0 0 24 24"><defs><style>.cls-1{fill:#231f20;}</style></defs><title>Icons</title><path class="cls-1" d="M6.51.5a.64.64,0,0,0-.64.64V3.2H4.3A3.3,3.3,0,0,0,1,6.5V20.2a3.3,3.3,0,0,0,3.3,3.3H19.7A3.3,3.3,0,0,0,23,20.2V6.5a3.3,3.3,0,0,0-3.3-3.3H18.13V1.14A.64.64,0,0,0,17.49.5a.64.64,0,0,0-.64.64V3.2H7.15V1.14A.64.64,0,0,0,6.51.5ZM19.7,22.22H4.3a2,2,0,0,1-2-2V9.35H21.72V20.2A2,2,0,0,1,19.7,22.22Zm2-15.72V8.07H2.28V6.5a2,2,0,0,1,2-2H19.7A2,2,0,0,1,21.72,6.5Z"/><ellipse class="cls-1" cx="10.59" cy="11.99" rx="0.53" ry="0.5"/><ellipse class="cls-1" cx="7.77" cy="11.99" rx="0.53" ry="0.5"/><ellipse class="cls-1" cx="13.41" cy="11.99" rx="0.53" ry="0.5"/><ellipse class="cls-1" cx="19.05" cy="11.99" rx="0.53" ry="0.5"/><ellipse class="cls-1" cx="16.23" cy="11.99" rx="0.53" ry="0.5"/><path class="cls-1" d="M5,16.39a.5.5,0,1,0,.53.5A.51.51,0,0,0,5,16.39Z"/><path class="cls-1" d="M10.59,16.39a.5.5,0,1,0,.53.5A.51.51,0,0,0,10.59,16.39Z"/><path class="cls-1" d="M7.77,16.39a.5.5,0,1,0,.53.5A.51.51,0,0,0,7.77,16.39Z"/><path class="cls-1" d="M13.41,16.39a.5.5,0,1,0,.53.5A.51.51,0,0,0,13.41,16.39Z"/><path class="cls-1" d="M19.05,16.39a.5.5,0,1,0,.53.5A.51.51,0,0,0,19.05,16.39Z"/><path class="cls-1" d="M16.23,16.39a.5.5,0,1,0,.53.5A.51.51,0,0,0,16.23,16.39Z"/><ellipse class="cls-1" cx="4.95" cy="14.44" rx="0.53" ry="0.5"/><ellipse class="cls-1" cx="10.59" cy="14.44" rx="0.53" ry="0.5"/><ellipse class="cls-1" cx="7.77" cy="14.44" rx="0.53" ry="0.5"/><ellipse class="cls-1" cx="13.41" cy="14.44" rx="0.53" ry="0.5"/><ellipse class="cls-1" cx="19.05" cy="14.44" rx="0.53" ry="0.5"/><ellipse class="cls-1" cx="16.23" cy="14.44" rx="0.53" ry="0.5"/><path class="cls-1" d="M5,18.84a.5.5,0,1,0,.53.5A.51.51,0,0,0,5,18.84Z"/><path class="cls-1" d="M10.59,18.84a.5.5,0,1,0,.53.5A.51.51,0,0,0,10.59,18.84Z"/><path class="cls-1" d="M7.77,18.84a.5.5,0,1,0,.53.5A.51.51,0,0,0,7.77,18.84Z"/><path class="cls-1" d="M13.41,18.84a.5.5,0,1,0,.53.5A.51.51,0,0,0,13.41,18.84Z"/></svg>