<svg id="Layer_1" data-name="Layer 1" xmlns="http://www.w3.org/2000/svg" viewBox="0 0 24 24"><defs><style>.cls-1{fill:#231f20;}</style></defs><title>Icons</title><path class="cls-1" d="M9.65,17.06a2.47,2.47,0,1,0,2.49,2.47A2.49,2.49,0,0,0,9.65,17.06Zm0,3.66a1.19,1.19,0,1,1,1.21-1.19A1.2,1.2,0,0,1,9.65,20.72Z"/><path class="cls-1" d="M18.2,17.06a2.47,2.47,0,1,0,2.49,2.47A2.48,2.48,0,0,0,18.2,17.06Zm0,3.66a1.19,1.19,0,1,1,0-2.38,1.19,1.19,0,1,1,0,2.38Z"/><path class="cls-1" d="M23.57,5.35A2,2,0,0,0,22,4.56h-17L4.41,2.48A.64.64,0,0,0,3.79,2H.64a.64.64,0,0,0,0,1.28H3.29L6.42,15.6l0,.05,0,.08a.62.62,0,0,0,.08.12l.06.06a.38.38,0,0,0,.13.09l.06,0a.93.93,0,0,0,.23,0H19.67a2,2,0,0,0,2-1.51l2.28-7.48A2,2,0,0,0,23.57,5.35Zm-3.15,8.88a.76.76,0,0,1-.75.57H7.54L6.24,9.68H21.81ZM22.2,8.4H5.92L5.27,5.85H22a.76.76,0,0,1,.61.29.73.73,0,0,1,.14.61Z"/></svg>