<svg id="Layer_1" data-name="Layer 1" xmlns="http://www.w3.org/2000/svg" viewBox="0 0 24 24"><defs><style>.cls-1{fill:#231f20;}</style></defs><title>Icons</title><path class="cls-1" d="M12,0A12,12,0,0,0,2.76,19.65h0a12,12,0,0,0,18.46,0h0A12,12,0,0,0,12,0Zm0,22.72a10.68,10.68,0,0,1-7.89-3.49,11.56,11.56,0,0,1,15.78,0A10.68,10.68,0,0,1,12,22.72Zm8.7-4.49a12.86,12.86,0,0,0-17.4,0A10.71,10.71,0,1,1,22.72,12,10.63,10.63,0,0,1,20.7,18.23Z"/><path class="cls-1" d="M11.8,5.55A4.25,4.25,0,1,0,16.05,9.8,4.25,4.25,0,0,0,11.8,5.55Zm0,7.21a3,3,0,1,1,3-3A3,3,0,0,1,11.8,12.76Z"/></svg>