<svg id="Layer_1" data-name="Layer 1" xmlns="http://www.w3.org/2000/svg" viewBox="0 0 24 24"><defs><style>.cls-1{fill:#231f20;}</style></defs><title>Icons</title><path class="cls-1" d="M17.35,1.94,2.92,16.39C1.42,17.89,1,21.86,1,22.3a.65.65,0,0,0,.64.7H1.7c.44,0,4.4-.42,5.9-1.92L22,6.63a3.33,3.33,0,0,0,0-4.69A3.39,3.39,0,0,0,17.35,1.94Zm-.86,2.67,2.87,2.88L7.15,19.71,4.28,16.84Zm-14.12,17a12.22,12.22,0,0,1,1.07-3.81l2.73,2.73A12.18,12.18,0,0,1,2.37,21.63ZM21.12,5.72l-.85.86L17.4,3.7l.86-.86a2.08,2.08,0,0,1,2.86,0h0A2,2,0,0,1,21.12,5.72Z"/></svg>