<svg id="Layer_1" data-name="Layer 1" xmlns="http://www.w3.org/2000/svg" viewBox="0 0 24 24"><defs><style>.cls-1{fill:#231f20;}</style></defs><title>Icons</title><path class="cls-1" d="M15.24,1.46A6.35,6.35,0,0,0,12,4.33,6.35,6.35,0,0,0,8.76,1.46,6.18,6.18,0,0,0,1.19,3.87C-.47,6.38-.91,10.81,3.3,15.05a106.81,106.81,0,0,0,8.3,7.81.64.64,0,0,0,.8,0,106.81,106.81,0,0,0,8.3-7.81c4.21-4.24,3.77-8.67,2.11-11.18A6.18,6.18,0,0,0,15.24,1.46Zm4.55,12.69c-4.34,4.38-6.87,6.6-7.79,7.38-.92-.78-3.45-3-7.79-7.38C.55,10.45.87,6.68,2.26,4.57a4.86,4.86,0,0,1,4.1-2.29,5.37,5.37,0,0,1,1.93.37,5.29,5.29,0,0,1,3.08,3.5.65.65,0,0,0,1.26,0,5.3,5.3,0,0,1,3.08-3.5,4.87,4.87,0,0,1,6,1.92C23.13,6.68,23.45,10.45,19.79,14.15Z"/></svg>