<svg id="Layer_1" data-name="Layer 1" xmlns="http://www.w3.org/2000/svg" viewBox="0 0 24 24"><defs><style>.cls-1{fill:#231f20;}</style></defs><title>Icons</title><path class="cls-1" d="M24,18.13V5.87a2.85,2.85,0,0,0-1.07-2.21l-.08-.07a2.56,2.56,0,0,0-.35-.22l-.21-.11L22,3.16l-.33-.1-.25,0c-.1,0-.2,0-.3,0H2.84a1.54,1.54,0,0,0-.3,0l-.25,0A3.19,3.19,0,0,0,2,3.17l-.25.08-.21.12c-.12.07-.24.14-.35.22l-.08.07A2.85,2.85,0,0,0,0,5.87V18.13A2.88,2.88,0,0,0,2.89,21H21.11A2.88,2.88,0,0,0,24,18.13ZM21.11,4.28l.19,0,.16,0,.18,0,.18.08.05,0-8.63,7.64a1.85,1.85,0,0,1-2.49,0L2.13,4.48l.05,0,.18-.08.18,0,.16,0,.19,0ZM1.28,18.13V5.87a1.59,1.59,0,0,1,.06-.38L9.9,13.08a3.16,3.16,0,0,0,4.2,0l8.56-7.59a1.59,1.59,0,0,1,.06.38V18.13a1.6,1.6,0,0,1-1.61,1.59H2.89A1.6,1.6,0,0,1,1.28,18.13Z"/></svg>