<svg id="Layer_1" data-name="Layer 1" xmlns="http://www.w3.org/2000/svg" viewBox="0 0 40 40"><defs><style>.cls-1{fill:#231f20;}</style></defs><title>Icons</title><path class="cls-1" d="M32,6.83H31V5.76a3,3,0,0,0-3-2.94h-1.6a3.26,3.26,0,0,0-6.46,0H17.28a5.3,5.3,0,0,0-2.1.44l-.06,0a5,5,0,0,0-1.48,1L6.52,11.09a4.77,4.77,0,0,0-1,1.37.38.38,0,0,0-.09.15,4.79,4.79,0,0,0-.45,2V33.06A3,3,0,0,0,8,36H9v1.07A3,3,0,0,0,12,40H32a3,3,0,0,0,3-2.94V9.77A3,3,0,0,0,32,6.83ZM23.13,1.29a2,2,0,0,1,1.94,1.53H21.19A2,2,0,0,1,23.13,1.29ZM14.53,5.2c.07-.07.16-.12.23-.18v5.51A1.69,1.69,0,0,1,13,12.17H7.28L7.41,12ZM6.29,33.06V14.61a3.44,3.44,0,0,1,.21-1.15H13a3,3,0,0,0,3-2.93V4.32a4,4,0,0,1,1.23-.21h2.59v6.54a3.26,3.26,0,0,0,6.52,0V6.9a.64.64,0,0,0-.64-.64.64.64,0,0,0-.64.64v3.75a2,2,0,0,1-4,0V4.11H28a1.71,1.71,0,0,1,1.75,1.65v27.3A1.71,1.71,0,0,1,28,34.7H8A1.7,1.7,0,0,1,6.29,33.06Zm27.42,4A1.7,1.7,0,0,1,32,38.71H12a1.71,1.71,0,0,1-1.75-1.65V36H28a3,3,0,0,0,3-2.93V8.12h1a1.7,1.7,0,0,1,1.74,1.65Z"/><path class="cls-1" d="M10.28,19.24h8.21a.64.64,0,0,0,.64-.64.65.65,0,0,0-.64-.65H10.28a.65.65,0,0,0-.65.65A.64.64,0,0,0,10.28,19.24Z"/><path class="cls-1" d="M21.35,19.32h4.37a.64.64,0,0,0,.64-.65.63.63,0,0,0-.64-.64H21.35a.64.64,0,0,0-.65.64A.65.65,0,0,0,21.35,19.32Z"/><path class="cls-1" d="M10.28,25.69h8.21a.65.65,0,0,0,.64-.65.64.64,0,0,0-.64-.64H10.28a.64.64,0,0,0-.65.64A.65.65,0,0,0,10.28,25.69Z"/><path class="cls-1" d="M25.72,24.47H21.35a.65.65,0,1,0,0,1.29h4.37a.65.65,0,0,0,0-1.29Z"/><path class="cls-1" d="M16.86,21.89a.65.65,0,0,0,.65.65h8.21a.64.64,0,0,0,.64-.65.63.63,0,0,0-.64-.64H17.51A.64.64,0,0,0,16.86,21.89Z"/><path class="cls-1" d="M10.28,22.46h4.37a.63.63,0,0,0,.64-.64.64.64,0,0,0-.64-.65H10.28a.65.65,0,0,0-.65.65A.64.64,0,0,0,10.28,22.46Z"/><path class="cls-1" d="M25.72,27.69H17.51a.65.65,0,1,0,0,1.29h8.21a.65.65,0,0,0,0-1.29Z"/><path class="cls-1" d="M10.28,28.91h4.37a.65.65,0,0,0,0-1.29H10.28a.65.65,0,1,0,0,1.29Z"/></svg>