<svg id="Layer_1" data-name="Layer 1" xmlns="http://www.w3.org/2000/svg" viewBox="0 0 40 40"><defs><style>.cls-1{fill:#231f20;}</style></defs><title>Icons</title><path class="cls-1" d="M31.13,6.33V3.54A3.56,3.56,0,0,0,27.57,0H12.05A3.56,3.56,0,0,0,8.49,3.54V6.42A2.2,2.2,0,0,0,7,8.49v1.63a2.19,2.19,0,0,0,1.49,2.07V25.45s0,.06,0,.08a.62.62,0,0,0,.16.36h0L19.43,37.6a.64.64,0,0,0,.47.21h0l.1,0a.45.45,0,0,0,.16,0s0,0,.08-.06a1,1,0,0,0,.13-.09l4.1-4.54a.7.7,0,0,0,.14-.27L31,25.6s0,0,0-.06a.71.71,0,0,0,.08-.15s0-.08,0-.12a.3.3,0,0,0,0-.1V12.28A2.19,2.19,0,0,0,33,10.12V8.49A2.2,2.2,0,0,0,31.13,6.33Zm-19.08-5H27.57a2.27,2.27,0,0,1,2.28,2.25V6.3H9.77V3.54A2.27,2.27,0,0,1,12.05,1.29ZM23.87,31.7a6.8,6.8,0,0,0-8,.08l-6-6.53a2.92,2.92,0,0,1,5.8.19.64.64,0,0,0,1.28,0,2.92,2.92,0,0,1,5.84.18.65.65,0,1,0,1.29,0A2.92,2.92,0,0,1,29.79,25ZM19.69,36l-3-3.24A5.66,5.66,0,0,1,23,32.67L19.89,36.2Zm3.2-23.65V22.77a4.24,4.24,0,0,0-3.08-1.33,4.19,4.19,0,0,0-2.89,1.15V12.32Zm7,10.27a4.22,4.22,0,0,0-5.68-.1V12.32h5.68ZM15.64,12.32V22.63a4.23,4.23,0,0,0-5.87,0V12.32Zm16.08-2.2a.91.91,0,0,1-.91.91H9.16a.91.91,0,0,1-.88-.9V8.49a.91.91,0,0,1,.9-.9H30.81a.9.9,0,0,1,.91.9Z"/><path class="cls-1" d="M29.57,38.71H10.43a.65.65,0,0,0,0,1.29H29.57a.65.65,0,0,0,0-1.29Z"/></svg>