<svg id="Layer_1" data-name="Layer 1" xmlns="http://www.w3.org/2000/svg" viewBox="0 0 24 24"><defs><style>.cls-1{fill:#231f20;}</style></defs><title>Icons</title><path class="cls-1" d="M12,3.6A5.56,5.56,0,0,0,6.51,9.22,5.56,5.56,0,0,0,12,14.84a5.56,5.56,0,0,0,5.49-5.62A5.56,5.56,0,0,0,12,3.6Zm0,10A4.28,4.28,0,0,1,7.79,9.22,4.28,4.28,0,0,1,12,4.89a4.28,4.28,0,0,1,4.21,4.33A4.28,4.28,0,0,1,12,13.55Z"/><path class="cls-1" d="M21,9.22A9.13,9.13,0,0,0,12,0,9.14,9.14,0,0,0,3,9.26v.07c0,8.13,8.27,14.29,8.62,14.55a.66.66,0,0,0,.76,0C12.73,23.62,21,17.46,21,9.33V9.22Zm-1.28.11c0,6.53-6.12,11.92-7.72,13.21-1.6-1.29-7.72-6.68-7.72-13.21V9.22A7.84,7.84,0,0,1,12,1.28a7.84,7.84,0,0,1,7.72,7.93h0Z"/></svg>