<svg id="Layer_1" data-name="Layer 1" xmlns="http://www.w3.org/2000/svg" viewBox="0 0 24 24"><defs><style>.cls-1{fill:#231f20;}</style></defs><title>Icons</title><path class="cls-1" d="M24,9.72a3.82,3.82,0,0,0-.33-1.58L21.53,1.45A.63.63,0,0,0,20.92,1H3.08a.63.63,0,0,0-.61.45l-2,6.29-.14.4A3.82,3.82,0,0,0,0,9.72,3.55,3.55,0,0,0,1.33,12.4v8A2.6,2.6,0,0,0,3.93,23H20.07a2.6,2.6,0,0,0,2.6-2.59v-8A3.55,3.55,0,0,0,24,9.72Zm-7-.07h0a.53.53,0,0,0,0,.13,2.2,2.2,0,0,1-4.4-.08V2.28h3.9ZM7,9.65l.49-7.37h3.9V9.7A2.2,2.2,0,0,1,7,9.78a.53.53,0,0,0,0-.13ZM1.53,8.57l2-6.29H6.18l-.5,7.38h0a2.2,2.2,0,0,1-4.4,0A2.93,2.93,0,0,1,1.53,8.57ZM21.39,20.41a1.32,1.32,0,0,1-1.32,1.31H3.93a1.31,1.31,0,0,1-1.31-1.31V13a3.42,3.42,0,0,0,3.7-1.34,3.49,3.49,0,0,0,5.68,0,3.49,3.49,0,0,0,5.68,0,3.49,3.49,0,0,0,2.84,1.46,3.58,3.58,0,0,0,.87-.12Zm-.87-8.53a2.2,2.2,0,0,1-2.2-2.18h0v0h0l-.5-7.38h2.63l1.86,5.87h0l.15.42a2.89,2.89,0,0,1,.25,1.11A2.21,2.21,0,0,1,20.52,11.88Z"/><path class="cls-1" d="M14.63,14.36a.65.65,0,0,0-.91,0L8.85,19.17a.65.65,0,0,0,0,.91.63.63,0,0,0,.46.19.64.64,0,0,0,.45-.18l4.87-4.82A.64.64,0,0,0,14.63,14.36Z"/><path class="cls-1" d="M15.1,16.43l-2.76,2.73a.65.65,0,0,0,0,.91.61.61,0,0,0,.45.19.6.6,0,0,0,.45-.19L16,17.35a.65.65,0,0,0,0-.91A.66.66,0,0,0,15.1,16.43Z"/><path class="cls-1" d="M11.66,14.74a.65.65,0,0,0,0-.91.63.63,0,0,0-.9,0L8,16.55a.65.65,0,0,0,0,.91.63.63,0,0,0,.46.19.64.64,0,0,0,.45-.18Z"/></svg>