<svg id="Layer_1" data-name="Layer 1" xmlns="http://www.w3.org/2000/svg" viewBox="0 0 24 24"><defs><style>.cls-1{fill:#231f20;}</style></defs><title>Icons</title><path class="cls-1" d="M19.33,2.45H16.9V1.66A1.67,1.67,0,0,0,15.22,0H8.78A1.67,1.67,0,0,0,7.1,1.66v.79H4.67A1.67,1.67,0,0,0,3,4.12v1A1.66,1.66,0,0,0,4.35,6.79L5,21.61A2.41,2.41,0,0,0,7.45,24h9.1A2.41,2.41,0,0,0,19,21.63l.66-14.84A1.66,1.66,0,0,0,21,5.15v-1A1.67,1.67,0,0,0,19.33,2.45ZM8.38,1.66a.39.39,0,0,1,.4-.38h6.44a.39.39,0,0,1,.4.38v.79H8.38Zm9.33,20a1.14,1.14,0,0,1-1.16,1.11H7.45a1.16,1.16,0,0,1-1.17-1.14L5.64,6.82H18.36Zm2-16.46a.4.4,0,0,1-.39.39H4.67a.4.4,0,0,1-.39-.39v-1a.4.4,0,0,1,.39-.39H19.33a.4.4,0,0,1,.39.39Z"/><path class="cls-1" d="M8.26,8.4a.64.64,0,0,0-.62.66L7.92,20a.63.63,0,0,0,.64.62h0A.64.64,0,0,0,9.2,20L8.92,9A.65.65,0,0,0,8.26,8.4Z"/><path class="cls-1" d="M15.74,8.4a.66.66,0,0,0-.66.62L14.8,20a.64.64,0,0,0,.63.66h0a.63.63,0,0,0,.64-.62l.28-10.94A.64.64,0,0,0,15.74,8.4Z"/><path class="cls-1" d="M12,8.4a.64.64,0,0,0-.64.64V20a.64.64,0,0,0,1.28,0V9A.64.64,0,0,0,12,8.4Z"/></svg>