<svg id="Layer_1" data-name="Layer 1" xmlns="http://www.w3.org/2000/svg" viewBox="0 0 40 40"><defs><style>.cls-1{fill:#231f20;}</style></defs><title>Icons</title><path class="cls-1" d="M32.1,24.39a.93.93,0,0,0,0-.13l0-.08s0,0,0,0l-.09-.1L31.83,24l0,0L26,20.5a.64.64,0,1,0-.65,1.11l4.9,2.9-4.9,2.9a.64.64,0,0,0-.23.88.63.63,0,0,0,.56.32.62.62,0,0,0,.32-.09l5.83-3.45h0a.7.7,0,0,0,.21-.21l0,0,0-.08a.5.5,0,0,0,0-.13.72.72,0,0,0,0-.24Z"/><path class="cls-1" d="M14.92,20.73A.64.64,0,0,0,14,20.5L8.2,24l0,0-.09.08-.09.1s0,0,0,0l0,.08s0,.09,0,.13a.72.72,0,0,0,0,.24c0,.05,0,.09,0,.13l0,.08,0,0a.7.7,0,0,0,.21.21h0L14,28.52a.64.64,0,0,0,.88-.23.64.64,0,0,0-.23-.88l-4.9-2.9,4.9-2.9A.64.64,0,0,0,14.92,20.73Z"/><path class="cls-1" d="M22.16,17.94a.64.64,0,0,0-.82.4l-3.9,11.2a.66.66,0,0,0,.4.82.76.76,0,0,0,.21,0,.63.63,0,0,0,.61-.43l3.9-11.2A.66.66,0,0,0,22.16,17.94Z"/><path class="cls-1" d="M35.61,8.16h-11c-2.31,0-3.29-1-4.42-2.25A7.51,7.51,0,0,0,14,3H4.39A4.4,4.4,0,0,0,0,7.4V32.6A4.4,4.4,0,0,0,4.39,37H35.61A4.4,4.4,0,0,0,40,32.6v-20A4.4,4.4,0,0,0,35.61,8.16ZM4.39,4.29H14A6.26,6.26,0,0,1,19.21,6.8c1.22,1.3,2.49,2.65,5.36,2.65h11a3.11,3.11,0,0,1,3,2.47H1.29V7.4A3.11,3.11,0,0,1,4.39,4.29ZM35.61,35.71H4.39a3.11,3.11,0,0,1-3.1-3.11V13.21H38.71V32.6A3.11,3.11,0,0,1,35.61,35.71Z"/><path class="cls-1" d="M4.5,8.46a1.08,1.08,0,0,0,0-2.16,1.08,1.08,0,1,0,0,2.16Z"/><path class="cls-1" d="M11,8.46A1.08,1.08,0,0,0,11,6.3a1.08,1.08,0,1,0,0,2.16Z"/><path class="cls-1" d="M7.75,8.46a1.08,1.08,0,0,0,0-2.16,1.08,1.08,0,1,0,0,2.16Z"/></svg>