<?xml version="1.0" encoding="UTF-8"?>
<svg width="25px" height="26px" viewBox="0 0 25 26" version="1.1" xmlns="http://www.w3.org/2000/svg" xmlns:xlink="http://www.w3.org/1999/xlink">
    <!-- Generator: sketchtool 49.1 (51147) - http://www.bohemiancoding.com/sketch -->
    <title>B6660735-8944-4971-880C-A6FB923D6840</title>
    <desc>Created with sketchtool.</desc>
    <defs></defs>
    <g id="Symbols" stroke="none" stroke-width="1" fill="none" fill-rule="evenodd">
        <g id="arhive" fill="#A5AFBA">
            <g>
                <path d="M3.9644165,24.1521301 L20.9644165,24.1521301 L20.9644165,25.9521301 L3.9644165,25.9521301 C3.35333252,25.9521301 3.04054769,25.9521301 3.02606201,25.9521301 C1.90855408,25.9730682 0.340621948,25.0657654 0.184204102,23.1907654 C0.184204102,23.1907654 0.184204102,18.6793315 0.184204102,9.65646362 C0.184204102,9.26833089 0.18985494,8.98408508 0.201156616,8.8037262 C0.23526001,8.67227173 0.237120802,8.47971163 0.351470947,8.16983032 C0.445433386,7.91519835 1.3250924,5.84858865 2.990448,1.97000122 C3.09913127,1.69530233 3.22844442,1.43281047 3.37838745,1.18252563 C3.56259155,0.827972412 4.38839722,0.130493164 5.12136841,0.130493164 C5.1734314,0.130493164 9.61288452,0.130493164 18.4397278,0.130493164 C18.9434306,0.130493164 19.3645935,0.166768392 19.7032166,0.239318848 C20.3609314,0.486633301 20.710968,0.747253418 21.0492249,1.35018921 C21.0979513,1.38711548 21.9952799,3.42819214 23.7412109,7.47341919 C23.9190267,7.86082967 24.0079346,8.05997213 24.0079346,8.07084656 C24.0987549,8.27574158 24.1655426,8.55062866 24.1864471,8.8037262 C24.1994375,8.91819763 24.2063141,13.5424805 24.207077,22.6765747 L24.207077,23.113327 C24.207077,23.4403025 24.1321564,23.7865702 23.9823151,24.1521301 C23.7412109,24.6755219 23.3947601,25.2937775 22.4669495,25.6998444 C22.1249797,25.8897654 21.6241353,25.9738607 20.9644165,25.9521301 L20.9644165,24.1521301 C21.4506836,24.1004944 21.6938171,24.0746765 21.6938171,24.0746765 C22.127594,23.9045258 22.27948,23.5836945 22.3552246,23.3963165 C22.4057109,23.1626027 22.4228109,22.9226888 22.4065247,22.6765747 C22.4104725,13.6793034 22.4104725,9.15680179 22.4065247,9.10906982 C22.4006029,9.03747188 22.4010071,8.94213028 22.3552246,8.8037262 C22.3124898,8.68578593 22.2705332,8.58235168 22.2293549,8.49342346 C20.5529327,4.63485209 19.6402384,2.54501343 19.491272,2.22390747 C19.331805,2.01176248 19.3044739,1.97000122 18.9846802,1.93997192 C18.8127035,1.93997192 18.6310527,1.93997192 18.4397278,1.93997192 C9.66781616,1.93997192 5.28186035,1.93997192 5.28186035,1.93997192 C5.11912537,1.97845459 4.96918226,2.0332483 4.84619141,2.22390747 C4.7998226,2.29578792 4.73451498,2.4563409 4.65026855,2.70556641 C3.02331294,6.46378201 2.16721349,8.45331956 2.08197021,8.67417908 C2.05858733,8.73476255 2.0134652,8.89893114 2.00056458,8.93731689 C1.98719788,9.11341349 1.98051453,9.35312907 1.98051453,9.65646362 C1.98051453,18.5378927 1.98051453,22.9786072 1.98051453,22.9786072 C1.98051453,23.5633392 2.31396484,24.0475006 3.02606201,24.1521301 C3.02606201,24.1521301 3.33884684,24.1521301 3.9644165,24.1521301 Z" id="Rectangle-10"></path>
                <path d="M21.3625031,7.7918396 C21.3625031,8.75377401 21.3625031,9.3536377 21.3625031,9.59143066 C21.3625031,9.59143066 15.5437113,9.59143066 3.90612793,9.59143066 C3.10099284,9.59143066 2.69118245,9.59143066 2.67669678,9.59143066 C1.1708374,9.25531006 1.01031494,8.31872559 0.930603027,8.01434326 C0.821309408,7.52634684 0.821309408,7.08359782 0.930603027,6.68609619 L2.98623657,1.9491272 C3.09491984,1.6744283 3.22423299,1.41193644 3.37417603,1.16165161 C3.55838013,0.807098389 4.38418579,0.109619141 5.11715698,0.109619141 C5.16921997,0.109619141 9.6086731,0.109619141 18.4355164,0.109619141 C18.9392192,0.109619141 19.3603821,0.145894368 19.6990051,0.218444824 C20.35672,0.465759277 20.7067566,0.726379395 21.0450134,1.32931519 C21.0937398,1.36624146 21.8605754,3.0939738 23.34552,6.51251221 C23.5168648,7.00434671 23.5636584,7.43078917 23.4859009,7.7918396 C23.3471661,8.43602446 23.1568146,8.64080811 22.8528595,8.96875 C22.3986155,9.38387044 21.90183,9.59143066 21.3625031,9.59143066 L21.3625031,7.7918396 C21.4466807,7.78384399 21.544515,7.72685242 21.6560059,7.62086487 C21.7124125,7.48538717 21.7236125,7.37254842 21.6896057,7.28234863 C20.3702087,4.21724447 19.636027,2.5241394 19.4870605,2.20303345 C19.3275935,1.99088846 19.3002625,1.9491272 18.9804688,1.9190979 C18.808492,1.9190979 18.6268412,1.9190979 18.4355164,1.9190979 C9.66360474,1.9190979 5.27764893,1.9190979 5.27764893,1.9190979 C5.11491394,1.95758057 4.96497084,2.01237428 4.84197998,2.20303345 C4.79561117,2.2749139 4.73030356,2.43546687 4.64605713,2.68469238 L2.67669678,7.23153687 C2.6439209,7.36942546 2.65597534,7.4912262 2.71286011,7.59693909 C2.79631551,7.7596283 2.9609019,7.82459513 3.20661926,7.7918396 L21.3625031,7.7918396 Z" id="Rectangle-10"></path>
                <path d="M14.9816374,15.4981716 C15.2489397,15.7668554 15.2453633,16.2004573 14.973708,16.4647512 C14.7041081,16.7270455 14.2720062,16.7235601 14.006727,16.4569098 L12.9551187,15.3998663 L12.9551187,19.5483333 C12.9551187,19.925635 12.6473385,20.23 12.2694962,20.23 C12.2373702,20.2296438 12.2373702,20.2296438 12.2101133,20.23 C11.832271,20.23 11.5244908,19.925635 11.5244908,19.5483333 L11.5244908,15.3998663 L10.4728825,16.4569098 C10.2076033,16.7235601 9.77550141,16.7270455 9.50590149,16.4647512 C9.23424622,16.2004573 9.23066982,15.7668554 9.49797211,15.4981716 L11.5858481,13.3995045 C11.6953717,13.1598512 11.9373706,13 12.2101133,13 C12.2422393,13.0003562 12.2422393,13.0003562 12.2694962,13 C12.5422389,13 12.7842378,13.1598512 12.8937614,13.3995045 L14.9816374,15.4981716 Z" id="Combined-Shape" fill-rule="nonzero" transform="translate(12.239805, 16.615000) scale(1, -1) translate(-12.239805, -16.615000) "></path>
            </g>
        </g>
    </g>
</svg>