<?xml version="1.0" encoding="UTF-8"?>
<svg width="17px" height="17px" viewBox="0 0 17 17" version="1.1" xmlns="http://www.w3.org/2000/svg" xmlns:xlink="http://www.w3.org/1999/xlink">
    <!-- Generator: Sketch 49.1 (51147) - http://www.bohemiancoding.com/sketch -->
    <title>dou</title>
    <desc>Created with Sketch.</desc>
    <defs>
        <rect id="path-1" x="0" y="0" width="17" height="17" rx="1.91549296"></rect>
    </defs>
    <g id="Рекрутинг" stroke="none" stroke-width="1" fill="none" fill-rule="evenodd">
        <g id="dou">
            <mask id="mask-2" fill="white">
                <use xlink:href="#path-1"></use>
            </mask>
            <use id="Rectangle-6" fill="#000000" xlink:href="#path-1"></use>
            <g id="Group-26" mask="url(#mask-2)" fill="#FFFFFF" fill-rule="nonzero">
                <g transform="translate(1.045444, 6.035205)">
                    <path d="M1.14599157,1.18935681 L1.14599157,3.89221191 C1.9241443,3.88981898 2.25432304,3.85810481 2.61994538,3.66774495 C2.9964347,3.47172726 3.28940743,3.06113113 3.27666106,2.5 C3.26369442,1.92917204 2.9778807,1.5944431 2.59530527,1.40165202 C2.23363891,1.21939764 1.89621975,1.17971077 1.14599157,1.18935681 Z M0.0100368924,0.246073405 C2.95054495,-0.0691392687 4.44144543,0.682169596 4.48273835,2.5 C4.52403127,4.3178304 3.03313079,5.09406196 0.0100368924,4.82869466 L0.0100368924,0.246073405 Z" id="Line-9"></path>
                    <path d="M7.47038665,3.80383301 C8.29823556,3.80383301 8.95186813,3.23517267 8.95186813,2.55383301 C8.95186813,1.87249334 8.29823556,1.30383301 7.47038665,1.30383301 C6.64253773,1.30383301 5.98890516,1.87249334 5.98890516,2.55383301 C5.98890516,3.23517267 6.64253773,3.80383301 7.47038665,3.80383301 Z M7.47038665,4.97049967 C5.93626234,4.97049967 4.69260887,3.88852115 4.69260887,2.55383301 C4.69260887,1.21914486 5.93626234,0.137166341 7.47038665,0.137166341 C9.00451095,0.137166341 10.2481644,1.21914486 10.2481644,2.55383301 C10.2481644,3.88852115 9.00451095,4.97049967 7.47038665,4.97049967 Z" id="Oval-6"></path>
                    <path d="M13.6680773,2.46830181 L13.6680773,0.242045085 L14.8171884,0.242045085 L14.8171884,2.46830181 C14.8171884,3.15807088 14.7953113,3.66268306 14.5398875,4.08187253 C14.2034416,4.63403158 13.5766058,4.91796875 12.692532,4.91796875 C11.0202931,4.91796875 10.4883604,3.97694906 10.4883604,2.4673456 L10.4883604,0.212961833 L11.6660959,0.212961833 L11.6660959,2.46830181 C11.6379123,3.54585775 11.9969008,3.97694906 12.692532,3.97694906 C13.3881632,3.97694906 13.6680773,3.55092367 13.6680773,2.46830181 Z" id="Rectangle-9"></path>
                </g>
            </g>
        </g>
    </g>
</svg>