<?xml version="1.0" encoding="UTF-8"?>
<svg width="17px" height="17px" viewBox="0 0 17 17" version="1.1" xmlns="http://www.w3.org/2000/svg" xmlns:xlink="http://www.w3.org/1999/xlink">
    <!-- Generator: Sketch 49.1 (51147) - http://www.bohemiancoding.com/sketch -->
    <title>git hab</title>
    <desc>Created with Sketch.</desc>
    <defs>
        <rect id="path-1" x="0" y="0" width="17" height="17" rx="1.91549296"></rect>
    </defs>
    <g id="Рекрутинг" stroke="none" stroke-width="1" fill="none" fill-rule="evenodd">
        <g id="git-hab">
            <mask id="mask-2" fill="white">
                <use xlink:href="#path-1"></use>
            </mask>
            <use id="Rectangle-6" fill="#FFFFFF" xlink:href="#path-1"></use>
            <g id="Ei-sc-github" mask="url(#mask-2)" fill="#181616">
                <g transform="translate(0.879150, 1.188721)" id="Shape">
                    <path d="M7.70138038,0 C3.4399499,0 0,3.4399499 0,7.70138038 C0,11.0899877 2.20772904,13.9651698 5.28828119,14.9920205 C5.69902148,15.043363 5.80170655,14.8379929 5.80170655,14.6326227 L5.80170655,13.2977168 C3.64532005,13.7597996 3.18323722,12.2708661 3.18323722,12.2708661 C2.82383947,11.398043 2.31041411,11.1413303 2.31041411,11.1413303 C1.59161861,10.6792475 2.36175665,10.6792475 2.36175665,10.6792475 C3.13189469,10.73059 3.54263497,11.4493855 3.54263497,11.4493855 C4.21008794,12.6302638 5.33962373,12.2708661 5.80170655,12.0654959 C5.85304909,11.5520706 6.05841923,11.2440154 6.31513191,11.0386452 C4.62082823,10.8332751 2.82383947,10.1658221 2.82383947,7.23929756 C2.82383947,6.41781698 3.13189469,5.69902148 3.59397751,5.18559612 C3.49129244,4.98022598 3.23457976,4.21008794 3.64532005,3.13189469 C3.64532005,3.13189469 4.31277301,2.92652454 5.75036402,3.90203273 C6.36647445,3.74800512 7.03392741,3.64532005 7.70138038,3.64532005 C8.36883334,3.64532005 9.03628631,3.74800512 9.65239674,3.90203273 C11.1413303,2.92652454 11.7574407,3.13189469 11.7574407,3.13189469 C12.168181,4.21008794 11.9114683,4.98022598 11.8087832,5.18559612 C12.3222086,5.69902148 12.5789213,6.41781698 12.5789213,7.23929756 C12.5789213,10.2171646 10.7819325,10.8332751 9.08762885,11.0386452 C9.34434153,11.2953579 9.60105421,11.7574407 9.60105421,12.4762362 L9.60105421,14.5812802 C9.60105421,14.7866503 9.75508181,15.043363 10.1144796,14.9406779 C13.1950317,13.9138272 15.3514182,11.0386452 15.3514182,7.65003784 C15.4027608,3.4399499 11.9628109,0 7.70138038,0 Z"></path>
                </g>
            </g>
        </g>
    </g>
</svg>