<?xml version="1.0" encoding="UTF-8"?>
<svg width="17px" height="17px" viewBox="0 0 17 17" version="1.1" xmlns="http://www.w3.org/2000/svg" xmlns:xlink="http://www.w3.org/1999/xlink">
    <!-- Generator: Sketch 49.1 (51147) - http://www.bohemiancoding.com/sketch -->
    <title>head hanter</title>
    <desc>Created with Sketch.</desc>
    <defs>
        <rect id="path-1" x="0" y="0" width="17" height="17" rx="1.91549296"></rect>
    </defs>
    <g id="Рекрутинг" stroke="none" stroke-width="1" fill="none" fill-rule="evenodd">
        <g id="head-hanter">
            <mask id="mask-2" fill="white">
                <use xlink:href="#path-1"></use>
            </mask>
            <use id="Rectangle-6" fill="#FFFFFF" xlink:href="#path-1"></use>
            <circle id="Oval-3" fill="#EB0000" mask="url(#mask-2)" cx="8.5" cy="8.5" r="7.5"></circle>
            <g id="Group-24" mask="url(#mask-2)" fill="#FFFFFF">
                <g transform="translate(3.833862, 5.014709)">
                    <path d="M3.49664307,2.17150879 C3.88269043,2.33435059 4.162323,2.68917847 4.22912598,2.99728394 C4.29592896,3.3053894 4.30343628,3.48649643 4.30343628,3.95030633 L4.30343628,7 L3.04679552,7 L3.04679552,3.84070796 C3.04679552,3.56115131 2.92788696,2.99728394 2.28912354,2.99728394 C1.4095459,2.99728394 1.24972534,3.74381443 1.24972534,4.18856365 L1.24972534,7 L0,7 L0,0 L1.24972534,0 L1.24972534,2.8086853 C1.44013468,2.45386759 1.67301432,2.22953288 1.94836426,2.13568115 C2.36138916,1.99490356 3.10070801,1.96734619 3.49664307,2.17150879 Z" id="h"></path>
                    <path d="M8.49664307,2.17150879 C8.88269043,2.33435059 9.162323,2.68917847 9.22912598,2.99728394 C9.29592896,3.3053894 9.30343628,3.48649643 9.30343628,3.95030633 L9.30343628,7 L8.04679552,7 L8.04679552,3.84070796 C8.04679552,3.56115131 7.92788696,2.99728394 7.28912354,2.99728394 C6.4095459,2.99728394 6.24972534,3.74381443 6.24972534,4.18856365 L6.24972534,7 L5,7 L5,0 L6.24972534,0 L6.24972534,2.8086853 C6.44013468,2.45386759 6.67301432,2.22953288 6.94836426,2.13568115 C7.36138916,1.99490356 8.10070801,1.96734619 8.49664307,2.17150879 Z" id="h-copy"></path>
                </g>
            </g>
        </g>
    </g>
</svg>