<?xml version="1.0" encoding="UTF-8"?>
<svg width="17px" height="17px" viewBox="0 0 17 17" version="1.1" xmlns="http://www.w3.org/2000/svg" xmlns:xlink="http://www.w3.org/1999/xlink">
    <!-- Generator: Sketch 49.1 (51147) - http://www.bohemiancoding.com/sketch -->
    <title>linked in</title>
    <desc>Created with Sketch.</desc>
    <defs>
        <rect id="path-1" x="0" y="0" width="17" height="17" rx="1.91549296"></rect>
    </defs>
    <g id="Рекрутинг" stroke="none" stroke-width="1" fill="none" fill-rule="evenodd">
        <g id="linked-in">
            <mask id="mask-2" fill="white">
                <use xlink:href="#path-1"></use>
            </mask>
            <use id="Rectangle-6" fill="#007CBA" xlink:href="#path-1"></use>
            <g id="Layer_x0020_1" mask="url(#mask-2)" fill="#FFFFFF" fill-rule="nonzero">
                <g transform="translate(2.332520, 1.577637)" id="Shape">
                    <path d="M12.2123145,13.2275391 L9.6223623,13.2275391 L9.48173379,13.2275391 L9.48173379,13.0869105 L9.48173379,7.47440859 C9.48173379,7.17270117 9.44119679,6.9199708 9.31481104,6.75104414 C9.19352197,6.58893779 8.98056035,6.49428574 8.62801787,6.49428574 C7.48688994,6.49428574 7.20153545,7.35927539 7.16475322,7.49063145 L7.16475322,13.0869088 L7.16475322,13.2275268 L7.02412471,13.2275371 L4.43461201,13.2275371 L4.2939835,13.2275391 L4.2939835,13.0869086 L4.2939835,4.00226995 L4.2939835,3.86164144 L4.43461201,3.86164144 L7.02412471,3.86164144 L7.16475322,3.86164144 L7.16475322,4.00226995 L7.16475322,4.60312015 C7.35682939,4.47835325 7.61209277,4.3336554 7.92328799,4.20584749 C8.37842344,4.01894104 8.95255752,3.86806712 9.62236318,3.86806712 C10.1566002,3.86806712 11.035706,4.05868958 11.6543329,4.90459642 C12.0608341,5.46044661 12.35295,6.29848899 12.35295,7.55024485 L12.35295,13.0868884 L12.35295,13.2275391 L12.2123215,13.2275169 L12.2123145,13.2275391 Z"></path>
                    <path d="M1.44422754,2.72921484 C1.06972998,2.72921484 0.730143457,2.57667979 0.484224609,2.32945049 C0.238988672,2.08292783 0.0872217773,1.74255205 0.0872217773,1.36578252 C0.0872217773,0.991212891 0.239238281,0.651989355 0.484806445,0.406421191 C0.730457227,0.16077041 1.06978447,0.008775 1.4442293,0.008775 L1.44532966,0.00932518213 C1.81995202,0.012916938 2.15880115,0.166241588 2.40369783,0.411134752 C2.64927654,0.656723131 2.80122009,0.99436903 2.80122009,1.36578514 C2.80122009,1.74260741 2.64952527,2.08302538 2.40429021,2.32956737 C2.158432,2.57672372 1.81889646,2.72921747 1.44423454,2.72921747 L1.44422754,2.72921484 Z"></path>
                    <polygon points="2.74334766 13.2275391 0.145107422 13.2275391 0.00447363281 13.2275391 0.00447363281 13.0869141 0.00447363281 4.00228418 0.00447363281 3.86165918 0.145107422 3.86165918 2.74334766 3.86165918 2.88397266 3.86165918 2.88397266 4.00228418 2.88397266 13.0869141 2.88397266 13.2275391"></polygon>
                </g>
            </g>
        </g>
    </g>
</svg>