<svg id="Layer_1" data-name="Layer 1" xmlns="http://www.w3.org/2000/svg" viewBox="0 0 706.04 307.39"><defs><style>.cls-1{fill:#070808;}.cls-2{fill:#c6e3e6;}.cls-3{fill:#4cbdcd;}.cls-4{fill:#afd479;}.cls-5{fill:#fff;}</style></defs><title>Dispatch of complaint</title><path class="cls-1" d="M295.06,465.6c25.16-.8,50.33-1.6,75.51-1.64,24.4,0,49.05,2.13,73.39-.2,1.79-.17,2.51-2.54.3-2.33-24.34,2.34-49,.17-73.39.21-25.18,0-50.35.84-75.51,1.64-1.83.06-2.52,2.39-.3,2.32Z" transform="translate(-235.73 -232.56)"/><path class="cls-1" d="M237.12,427.28c34.69-.8,69.39-1.59,104.1-1.64,34.19-.05,68.59,2.19,102.74-.21,1.8-.12,2.52-2.48.3-2.32-34.15,2.4-68.55.16-102.74.21-34.71,0-69.41.84-104.1,1.64-1.83,0-2.51,2.37-.3,2.32Z" transform="translate(-235.73 -232.56)"/><path class="cls-1" d="M287.9,394.89c26.22-.8,52.45-1.6,78.68-1.64,25.73,0,51.71,2.15,77.38-.2,1.79-.17,2.51-2.53.3-2.33-25.67,2.36-51.65.16-77.38.21-26.23,0-52.46.84-78.68,1.64-1.82.05-2.51,2.39-.3,2.32Z" transform="translate(-235.73 -232.56)"/><path class="cls-1" d="M332.59,362.5c18.94-.81,37.89-1.61,56.85-1.64,18.1,0,36.49,2.07,54.52-.2,1.77-.23,2.51-2.6.3-2.33-18,2.27-36.41.18-54.52.21-19,0-37.91.83-56.85,1.64-1.82.08-2.52,2.42-.3,2.32Z" transform="translate(-235.73 -232.56)"/><path class="cls-2" d="M716.27,402.23c35.81-.27,234.66-169,213.59-168.88-118,.88-396.23-4-429.69,3.21C453.2,246.65,666.78,402.6,716.27,402.23Z" transform="translate(-235.73 -232.56)"/><path class="cls-2" d="M510.57,539.61c-16.26-.29-27.19-1.91-27.31-18.08-1.35-180.61-6-229.92,27.48-207.6C530.37,327,575.27,367.82,653.19,416.4c28.6,16,59.78,24.89,82.49,15.6,40.88-16.73,117.81-81.32,164.47-121.43S942,319,941.28,382c-1,86.39,10.9,151.9-42.84,154.43C823.66,539.89,554.67,540.42,510.57,539.61Z" transform="translate(-235.73 -232.56)"/><path class="cls-3" d="M898.92,478.1c-.29-2.14-1.37-4.16-1.36-6.31,0-1.68.67-3.31.57-5-.18-2.81-2.47-5.57-1.37-8.15.52-1.2,1.72-2.18,1.63-3.48-.07-1-.9-1.74-1.26-2.67a6.28,6.28,0,0,1-.11-3.11,50.35,50.35,0,0,0-.53-15.59c-.41-2.15-.91-4.58.36-6.37l-12.79,2.79c-2.45.54-5.32,1-7.22-.67-5.9.94-13.71,1.41-19.67,1.91-1.87,2.77-.8,6.45-.17,9.73a32.68,32.68,0,0,1-.16,13.18,13.24,13.24,0,0,0-.41,2.4,11.1,11.1,0,0,0,.36,2.69q1.46,6.67,2.92,13.33a4.81,4.81,0,0,1,0,3.18,11,11,0,0,1-1.43,1.71,4.3,4.3,0,0,0,1.32,6.2c1.07-2.61,4.81-2.07,7.63-1.95a16.41,16.41,0,0,0,7.93-1.88c0,1.41,1.74,2.07,3.15,2.18,6,.47,12.3-1.6,17.76.84C898.18,482.92,899.21,480.23,898.92,478.1Z" transform="translate(-235.73 -232.56)"/><path class="cls-3" d="M899.26,519.94a111.74,111.74,0,0,0,1.81,16.26c20.76-1.86,31.09-13.81,36.13-33.1a125.23,125.23,0,0,1-14.11-10.75C918.77,508.47,911.29,516.81,899.26,519.94Z" transform="translate(-235.73 -232.56)"/><path class="cls-3" d="M606.69,524.77c-8.78,0-19,.19-29.59.33a110.38,110.38,0,0,0-7.89,14.84c12.3,0,25.9,0,40.38,0a125.93,125.93,0,0,1,4.71-15.14Z" transform="translate(-235.73 -232.56)"/><path class="cls-3" d="M678.9,524.78a109.44,109.44,0,0,0-3.39,14.93c13.94-.07,28.1-.15,42.22-.25a122.89,122.89,0,0,1,3-14.81C706.22,524.72,692.06,524.76,678.9,524.78Z" transform="translate(-235.73 -232.56)"/><path class="cls-3" d="M792,524.09a107.86,107.86,0,0,0-3.51,14.71c15.44-.19,30.2-.4,43.87-.64a124.39,124.39,0,0,1,3.07-14.79C822,523.66,807.32,523.9,792,524.09Z" transform="translate(-235.73 -232.56)"/><path class="cls-4" d="M734.2,524.58a110.5,110.5,0,0,0-3.42,14.78c15.13-.12,30.11-.25,44.62-.41a124.73,124.73,0,0,1,3.1-14.71C763.9,524.39,748.94,524.5,734.2,524.58Z" transform="translate(-235.73 -232.56)"/><path class="cls-4" d="M628.22,524.8a110.29,110.29,0,0,0-5.3,15.1c12.72,0,26-.07,39.53-.13a125.48,125.48,0,0,1,3-15Z" transform="translate(-235.73 -232.56)"/><path class="cls-3" d="M497,398.93a119.1,119.1,0,0,0-14.77,8.16q0,14,.19,30.26a127.93,127.93,0,0,1,14-6.37C496.56,420,496.8,409,497,398.93Z" transform="translate(-235.73 -232.56)"/><path class="cls-4" d="M497.76,359.35q0-3.28,0-6.39a120.34,120.34,0,0,0-15,8.63c-.31,8.9-.47,19-.51,30.44a126.69,126.69,0,0,1,15.1-7.26C497.63,374.12,497.81,365.21,497.76,359.35Z" transform="translate(-235.73 -232.56)"/><path class="cls-3" d="M507.44,311.9c-15.07-8.45-21.42.58-23.84,34a126,126,0,0,1,14.71-7.29C499.55,320.49,502.82,310,507.44,311.9Z" transform="translate(-235.73 -232.56)"/><path class="cls-4" d="M496.27,445a118.31,118.31,0,0,0-13.67,7.13q.16,15.4.34,32.68a123,123,0,0,1,13.72-5.84C496.29,468.59,496.2,456.93,496.27,445Z" transform="translate(-235.73 -232.56)"/><path class="cls-4" d="M528.17,524a114.51,114.51,0,0,0-8,15.75c8.71.08,20.68.14,35,.17a130.28,130.28,0,0,1,6.84-14.71C550,525.2,538.18,524.94,528.17,524Z" transform="translate(-235.73 -232.56)"/><path class="cls-3" d="M501.83,515.7c-2.23-3.32-3.62-11.81-4.47-23.28a114.63,114.63,0,0,0-14.28,6.88q.09,10.77.18,22.23c.11,14.75,9.22,17.39,23.16,18a129.18,129.18,0,0,1,8-17.55C508.21,520.53,503.71,518.52,501.83,515.7Z" transform="translate(-235.73 -232.56)"/><path class="cls-4" d="M848.93,523.05a107.62,107.62,0,0,0-3.51,14.87c16.54-.33,31.05-.7,42.65-1.12a123.82,123.82,0,0,1-1.64-15.32C877.38,522.11,864.41,522.63,848.93,523.05Z" transform="translate(-235.73 -232.56)"/><path class="cls-3" d="M941.66,335c-.72-29.88-5.5-47.11-26.55-35.36,7.36-2.74,10.95,12.07,12.58,33.95A117.61,117.61,0,0,0,941.66,335Z" transform="translate(-235.73 -232.56)"/><path class="cls-3" d="M941.23,399.65a126.83,126.83,0,0,1-12.47-3.57c-.15,12-.41,23.66-.58,34a110.59,110.59,0,0,0,13.47,4.78C941.52,423.76,941.29,412,941.23,399.65Z" transform="translate(-235.73 -232.56)"/><path class="cls-4" d="M941.75,448.28A125.56,125.56,0,0,1,928,443.93a297.62,297.62,0,0,1-2,33.37,106.88,106.88,0,0,0,13.88,11.92C941.38,477.33,941.77,463.55,941.75,448.28Z" transform="translate(-235.73 -232.56)"/><path class="cls-4" d="M941.28,382c.14-12,.43-23.55.48-34-.79,0-1.58-.06-2.39-.11-3.48-.19-7.15-.53-11-1.06.44,11.15.54,23.38.48,35.66a112.87,112.87,0,0,0,12.34,4C941.25,384.92,941.26,383.44,941.28,382Z" transform="translate(-235.73 -232.56)"/><path class="cls-5" d="M498.31,338.61a126,126,0,0,0-14.71,7.29c-.35,4.73-.61,10-.81,15.69a120.34,120.34,0,0,1,15-8.63C497.82,347.78,498,343,498.31,338.61Z" transform="translate(-235.73 -232.56)"/><path class="cls-5" d="M497.38,384.77a126.69,126.69,0,0,0-15.1,7.26c0,4.79,0,9.8,0,15.06A119.1,119.1,0,0,1,497,398.93C497.16,394,497.28,389.22,497.38,384.77Z" transform="translate(-235.73 -232.56)"/><path class="cls-5" d="M496.41,431a127.93,127.93,0,0,0-14,6.37q.07,7.15.14,14.75A118.31,118.31,0,0,1,496.27,445C496.29,440.33,496.34,435.65,496.41,431Z" transform="translate(-235.73 -232.56)"/><path class="cls-5" d="M496.66,478.94a123,123,0,0,0-13.72,5.84q.07,7.1.14,14.52a114.63,114.63,0,0,1,14.28-6.88C497.06,488.28,496.83,483.76,496.66,478.94Z" transform="translate(-235.73 -232.56)"/><path class="cls-5" d="M514.45,522a129.18,129.18,0,0,0-8,17.55c1.34,0,2.72.09,4.15.11,2.51,0,5.74.09,9.62.13a114.51,114.51,0,0,1,8-15.75A110.46,110.46,0,0,1,514.45,522Z" transform="translate(-235.73 -232.56)"/><path class="cls-5" d="M562.08,525.2a130.28,130.28,0,0,0-6.84,14.71l14,0a110.38,110.38,0,0,1,7.89-14.84C572.13,525.16,567.09,525.2,562.08,525.2Z" transform="translate(-235.73 -232.56)"/><path class="cls-5" d="M614.3,524.78a125.93,125.93,0,0,0-4.71,15.14l13.33,0a110.29,110.29,0,0,1,5.3-15.1Z" transform="translate(-235.73 -232.56)"/><path class="cls-5" d="M665.49,524.8a125.48,125.48,0,0,0-3,15l13.06-.06a109.44,109.44,0,0,1,3.39-14.93Z" transform="translate(-235.73 -232.56)"/><path class="cls-5" d="M720.78,524.65a122.89,122.89,0,0,0-3,14.81l13-.1a110.5,110.5,0,0,1,3.42-14.78Z" transform="translate(-235.73 -232.56)"/><path class="cls-5" d="M778.5,524.24A124.73,124.73,0,0,0,775.4,539l13.07-.15A107.86,107.86,0,0,1,792,524.09Z" transform="translate(-235.73 -232.56)"/><path class="cls-5" d="M835.41,523.37a124.39,124.39,0,0,0-3.07,14.79q6.72-.1,13.08-.24a107.62,107.62,0,0,1,3.51-14.87C844.61,523.16,840.09,523.27,835.41,523.37Z" transform="translate(-235.73 -232.56)"/><path class="cls-5" d="M898.76,520.07a90.1,90.1,0,0,1-12.33,1.41,123.82,123.82,0,0,0,1.64,15.32c3.77-.13,7.24-.28,10.37-.42.89,0,1.77-.11,2.63-.18a111.74,111.74,0,0,1-1.81-16.26Z" transform="translate(-235.73 -232.56)"/><path class="cls-5" d="M925.94,477.3a116.66,116.66,0,0,1-2.85,15.05A125.23,125.23,0,0,0,937.2,503.1a114.66,114.66,0,0,0,2.62-13.88A106.88,106.88,0,0,1,925.94,477.3Z" transform="translate(-235.73 -232.56)"/><path class="cls-5" d="M941.65,434.89a110.59,110.59,0,0,1-13.47-4.78c-.07,4-.13,7.74-.16,11.26,0,.86,0,1.72,0,2.56a125.56,125.56,0,0,0,13.77,4.35Q941.74,441.76,941.65,434.89Z" transform="translate(-235.73 -232.56)"/><path class="cls-5" d="M941.24,386.39a112.87,112.87,0,0,1-12.34-4c0,4.56-.08,9.13-.14,13.65a126.83,126.83,0,0,0,12.47,3.57Q941.2,393.11,941.24,386.39Z" transform="translate(-235.73 -232.56)"/><path class="cls-5" d="M941.76,347.94c0-4.51,0-8.83-.1-12.9a117.61,117.61,0,0,1-14-1.41c.31,4.15.55,8.55.73,13.14,3.8.53,7.47.87,11,1.06C940.18,347.88,941,347.91,941.76,347.94Z" transform="translate(-235.73 -232.56)"/><path class="cls-1" d="M523.4,431.84c9.17-7.6,23.35,3.3,32.24-6.55l-2.6.48a38.25,38.25,0,0,0,16.05,4.53,37.81,37.81,0,0,0,8.43-.56c2.53-.46,3.65.28,6.05.82,4.69,1.06,9.52-.81,14-1.79a38.4,38.4,0,0,1,24.87,3c1.17.55,4.06-1.06,2.53-1.78-10.34-4.91-20.57-5-31.51-2.37a33.51,33.51,0,0,1-4.65.91c-3.27.32-3.86-.76-6.77-1.53-1.53-.41-2.88.25-4.45.54A33.62,33.62,0,0,1,555.57,424a2.31,2.31,0,0,0-2.61.47c-5,5.54-13.2,2.68-19.63,2.52-4.43-.11-8.57.66-12,3.54-1.69,1.4.94,2.29,2.11,1.32Z" transform="translate(-235.73 -232.56)"/><path class="cls-1" d="M520.62,453.14a92.27,92.27,0,0,0,26.32-2.87c6.42-1.67,12.39-3.86,19.09-2,4.81,1.34,9.34,3.21,14.36,3.63a37.87,37.87,0,0,0,11-.75c2.87-.62,5.66-1.57,8.66-1.19,2.68.33,5.26,1.44,7.93,1.9,9.13,1.6,18.45-.22,27.41-2,1.25-.25,2.91-1.57.63-1.12-5.77,1.15-11.59,2.32-17.49,2.45-5.62.12-10.39-1.61-15.81-2.46a20.8,20.8,0,0,0-8,.61c-6.39,1.46-12.2,1.82-18.54.07-7.46-2.07-13.63-4.55-21.37-2.49-10.81,2.89-20.79,5.29-32.1,4.94-.66,0-3.66,1.21-2.12,1.26Z" transform="translate(-235.73 -232.56)"/><path class="cls-1" d="M531.05,474c4.57-5.29,11.39-3.76,17.48-3.06a71.66,71.66,0,0,0,13.58.26c4.4-.34,8.77-1,13.13-1.73,3.31-.54,5.91-1.39,9.23,0,1.29.53,2.4,1.38,3.74,1.85,13.37,4.69,27.21-6.4,40.42-.73,1.33.57,3.76-1.34,1.88-2.15-7-3-14.33-1.71-21.5-.24-4.38.9-8.83,2-13.33,1.88a16.86,16.86,0,0,1-7.58-1.78c-1.3-.68-2.41-1.72-3.87-2.06-4.25-1-10.07,1.22-14.31,1.82a77.94,77.94,0,0,1-18.37.82c-8.17-.78-17.13-2.78-23.21,4.25-1.33,1.54,1.77,2,2.71.91Z" transform="translate(-235.73 -232.56)"/><path class="cls-1" d="M893.88,484.78c-.57-2.72-1.35-4.86-1.18-7.73.11-1.8.5-3.15.15-4.94-.63-3.26-1.71-3.73-.56-7.42.4-1.26,1.14-1.32,1.06-2.81a9.6,9.6,0,0,0-1.26-2.67,16.48,16.48,0,0,1,.08-4.6c.07-1.83.22-3.63.18-5.46-.08-4.2-2.56-10.62-.65-14.53.54-1.09-1.12-1-1.73-.88l-7.31,1.59-3.66.8c-2.84.61-4.66,0-7.53-.23-3.22-.26-6.77.62-10,.92-5.59.5-13.56-1.4-13.6,6.18,0,5.09,1.81,9.75,1.31,15-.4,4.19-1.12,6.8-.22,11,.55,2.54,1.11,5.07,1.66,7.61.76,3.45.33,5.49-.8,8.73-.89,2.55-.71,4.62,1.61,6.38a2.41,2.41,0,0,0,3-.6c1.31-2,6.3-1,8.36-1.22a22.15,22.15,0,0,0,6.33-2l-2.27-.26c.62,2,2.23,2.43,4.15,2.69,5.29.7,10.41-1,15.72.28,4.28,1,7.33-1.07,7.17-5.82,0-1.06-3.28-.41-3.24.87.15,4.73-3.91,2.48-6.88,2.41s-12.62,2.08-13.67-1.3c-.26-.81-1.77-.48-2.27-.25-4.33,1.95-8.12.75-12.36,1.73a6,6,0,0,0-4.07,2.74l3-.6c-3.88-2.94.13-5.75.51-9.13.44-3.87-1.93-9.37-2.75-13.17-.94-4.39.18-8,.36-12.39.16-3.66-.63-7.07-1.13-10.67-.31-2.23-.91-4.7,1.22-5.68,1.44-.66,4.23-.33,5.82-.46,3.81-.32,8-1.29,11.7-.63,6.74,1.18,13.67-1.4,20.27-2.84l-1.73-.88c-1.67,3.39-.36,6.7.07,10.29.61,5.1-.58,10.26.1,15.26.22,1.63.89,2.55.41,4.52-.12.5-.67.87-.78,1.39a8.72,8.72,0,0,0,.45,4.91c1,3,.34,5.21.35,8.21,0,2.22.9,4.39,1.36,6.54C890.88,486.8,894.14,486,893.88,484.78Z" transform="translate(-235.73 -232.56)"/></svg>